<svg width="151" height="151" viewBox="0 0 151 151" fill="none" xmlns="http://www.w3.org/2000/svg">
<g style="mix-blend-mode:multiply">
<circle r="75.5" transform="matrix(1 0 0 -1 75.5 75.5)" fill="white"/>
<circle r="75.5" transform="matrix(1 0 0 -1 75.5 75.5)" fill="url(#paint0_linear)"/>
</g>
<path d="M19.2828 102H130.717C138.055 102 144 107.949 144 115.286C144 122.622 138.056 128.569 130.717 128.569H19.2828C11.9472 128.569 6 122.621 6 115.286C6 107.95 11.9477 102 19.2828 102Z" fill="#EBF0F4" stroke="#353535" stroke-width="4"/>
<path d="M19.3173 109C15.8252 109 13 111.828 13 115.317C13 118.807 15.825 121.634 19.3173 121.634C22.8069 121.634 25.6345 118.807 25.6345 115.317C25.6345 111.828 22.8067 109 19.3173 109Z" fill="#CED6E0"/>
<path d="M130.317 109C126.825 109 124 111.828 124 115.317C124 118.807 126.825 121.634 130.317 121.634C133.807 121.634 136.635 118.807 136.635 115.317C136.635 111.828 133.807 109 130.317 109Z" fill="#CED6E0"/>
<path d="M93.3173 109C89.8276 109 87 111.828 87 115.317C87 118.807 89.8276 121.634 93.3173 121.634C96.8069 121.634 99.6345 118.807 99.6345 115.317C99.6345 111.828 96.8043 109 93.3173 109Z" fill="#CED6E0"/>
<path d="M56.3173 109C52.8276 109 50 111.828 50 115.317C50 118.807 52.8276 121.634 56.3173 121.634C59.8069 121.634 62.6345 118.807 62.6345 115.317C62.6345 111.828 59.8069 109 56.3173 109Z" fill="#CED6E0"/>
<path d="M114.506 18.8687H35.4947C32.2287 18.8687 29.5781 21.5165 29.5781 24.7852V94.6612C29.5781 97.9272 32.2287 100.578 35.4947 100.578H114.503C117.772 100.578 120.42 97.9272 120.42 94.6612V24.7852C120.423 21.5162 117.775 18.8687 114.506 18.8687Z" fill="#DC010F"/>
<path d="M86.287 18.8538V40.6538L83.6156 37.9439L80.7401 40.8136L77.8676 37.9439L74.9949 40.8136L72.1549 37.9439L69.2794 40.8136L66.41 37.9439L63.7031 40.6538V18.8538H86.287Z" fill="#F3F3F3"/>
<path d="M55.0974 76.8341H51.6806V86.3986H45.4442V76.8341H42.0273L48.5624 68.8527L55.0974 76.8341Z" fill="#EF525C"/>
<path d="M71.8706 76.8341H68.4537V86.3986H62.2146V76.8341H58.8008L65.3358 68.8527L71.8706 76.8341Z" fill="#EF525C"/>
<path d="M74.4133 88.7087H39.4844V90.6732H74.4133V88.7087Z" fill="#EF525C"/>
<defs>
<linearGradient id="paint0_linear" x1="75.5" y1="0" x2="75.5" y2="151" gradientUnits="userSpaceOnUse">
<stop stop-color="#FAEDC2" stop-opacity="0"/>
<stop offset="1" stop-color="#FAEDC2"/>
</linearGradient>
</defs>
</svg>
