<svg width="151" height="151" viewBox="0 0 151 151" fill="none" xmlns="http://www.w3.org/2000/svg">
<g style="mix-blend-mode:multiply">
<circle r="75.5" transform="matrix(1 0 0 -1 75.5 75.5)" fill="white"/>
<circle r="75.5" transform="matrix(1 0 0 -1 75.5 75.5)" fill="url(#paint0_linear)"/>
</g>
<path d="M99 69H52V76H99V69Z" fill="#C9000D"/>
<path d="M130.723 53.848V78.2913C130.723 84.025 125.895 88.8532 120.162 88.8532H112.617V79.8001H120.162C121.067 79.8001 121.67 79.1966 121.67 78.2913V53.848H130.723Z" fill="#CED6E0"/>
<path d="M38.684 79.8011V88.8541H31.14C25.4062 88.8541 20.5781 84.0257 20.5781 78.2923V53.849H29.6312V78.2923C29.6312 79.1976 30.2346 79.8011 31.14 79.8011H38.684Z" fill="#CED6E0"/>
<path d="M96.3208 116.918H80.0252V108.468H70.9721V116.918H54.6766C42.6057 116.918 32.9492 126.574 32.9492 138.645H42.0023C42.0023 131.705 47.736 125.971 54.6766 125.971H70.9721V138.645H80.0252V125.971H96.3208C103.261 125.971 108.995 131.705 108.995 138.645H118.048C118.048 126.574 108.391 116.918 96.3208 116.918Z" fill="#CED6E0"/>
<path d="M84.5525 96.3975H66.1445V108.468H84.5525V96.3975Z" fill="#353535"/>
<path d="M115.634 77.0844L118.652 88.8534C119.557 92.7765 116.842 96.3977 112.617 96.3977H38.0798C34.1567 96.3977 31.1392 92.7765 32.0445 88.8534L35.0623 77.0844C35.6657 74.3685 38.0801 72.5579 41.0976 72.5579H109.599C112.617 72.5579 115.031 74.3685 115.634 77.0844Z" fill="#DC010F"/>
<path d="M107.791 69.54H43.2125C43.2125 69.54 32.0469 23.0675 43.2125 11.6004C54.6796 0.133216 96.3238 0.133216 107.791 11.6004C119.259 23.0675 107.791 69.54 107.791 69.54Z" fill="#DC010F"/>
<path d="M75.4983 148C78.4982 148 80.9301 145.568 80.9301 142.568C80.9301 139.568 78.4982 137.136 75.4983 137.136C72.4983 137.136 70.0664 139.568 70.0664 142.568C70.0664 145.568 72.4983 148 75.4983 148Z" fill="#353535"/>
<path d="M83.9498 142.568H67.0508V141.361C67.0508 137.74 70.0686 134.722 73.6898 134.722H77.311C80.9323 134.722 83.95 137.74 83.95 141.361L83.9498 142.568Z" fill="#353535"/>
<path d="M113.522 148C116.522 148 118.954 145.568 118.954 142.568C118.954 139.568 116.522 137.136 113.522 137.136C110.522 137.136 108.09 139.568 108.09 142.568C108.09 145.568 110.522 148 113.522 148Z" fill="#353535"/>
<path d="M121.973 142.568H105.074V141.361C105.074 137.74 108.092 134.722 111.713 134.722H115.334C118.956 134.722 121.973 137.74 121.973 141.361L121.973 142.568Z" fill="#353535"/>
<path d="M37.7795 148C40.7794 148 43.2113 145.568 43.2113 142.568C43.2113 139.568 40.7794 137.136 37.7795 137.136C34.7796 137.136 32.3477 139.568 32.3477 142.568C32.3477 145.568 34.7796 148 37.7795 148Z" fill="#353535"/>
<path d="M46.2271 142.568H29.3281V141.361C29.3281 137.74 32.3459 134.722 35.9671 134.722H39.2865C42.9077 134.722 45.9255 137.74 45.9255 141.361V142.568H46.2271Z" fill="#353535"/>
<path d="M138.567 58.3746H120.159C117.745 58.3746 115.633 56.2621 115.633 53.8481C115.633 51.434 117.745 49.3215 120.159 49.3215H138.567C140.981 49.3215 143.094 51.434 143.094 53.8481C143.094 56.564 140.981 58.3746 138.567 58.3746Z" fill="#DC010F"/>
<path d="M30.8369 58.3746H12.4289C10.0148 58.3746 7.90234 56.2621 7.90234 53.8481C7.90234 51.434 10.0148 49.3215 12.4289 49.3215H30.8369C33.251 49.3215 35.3634 51.434 35.3634 53.8481C35.3634 56.564 33.251 58.3746 30.8369 58.3746Z" fill="#DC010F"/>
<defs>
<linearGradient id="paint0_linear" x1="75.5" y1="0" x2="75.5" y2="151" gradientUnits="userSpaceOnUse">
<stop stop-color="#FAEDC2" stop-opacity="0"/>
<stop offset="1" stop-color="#FAEDC2"/>
</linearGradient>
</defs>
</svg>
