<svg width="120" height="121" viewBox="0 0 120 121" fill="none" xmlns="http://www.w3.org/2000/svg">
<g style="mix-blend-mode:multiply">
<circle r="60" transform="matrix(1 0 0 -1 60 60.2982)" fill="white"/>
<circle r="60" transform="matrix(1 0 0 -1 60 60.2982)" fill="url(#paint0_linear)"/>
</g>
<g clip-path="url(#clip0)">
<path d="M10.459 68.167V79.9815C10.459 82.4335 12.4652 84.4397 14.9172 84.4397H106.313C108.765 84.4397 110.771 82.4335 110.771 79.9815V61.2565C110.771 59.2502 110.326 57.467 109.434 55.6835L103.638 45.2065C100.517 39.6335 94.9445 36.2897 88.7027 36.2897H75.7735V68.167H10.459Z" fill="#FFD15C"/>
<path d="M10.459 68.167V79.9815C10.459 82.4335 12.4652 84.4397 14.9172 84.4397H106.313C108.765 84.4397 110.771 82.4335 110.771 79.9815V61.2565C110.771 59.2502 110.326 57.467 109.434 55.6835L103.638 45.2065C100.517 39.6335 94.9445 36.2897 88.7027 36.2897H75.7735V68.167H10.459Z" fill="#CED6E0"/>
<path d="M81.3465 58.1358V42.0858H88.4797C92.7152 42.0858 96.5047 44.315 98.511 47.8815L104.084 58.1358H81.3465Z" fill="#EBF0F4"/>
<path d="M10.4589 17.119H71.3152C73.7672 17.119 75.7734 19.1252 75.7734 21.5772V67.944H10.4589C8.00692 67.944 6.00066 65.9377 6.00066 63.4857V21.5774C6.00066 19.1252 8.00692 17.119 10.4589 17.119Z" fill="#DC010F"/>
<path d="M108.765 73.0712H110.771V66.8295H108.765C107.428 66.8295 106.536 67.7212 106.536 69.0587V70.842C106.536 72.1795 107.428 73.0712 108.765 73.0712Z" fill="#353535"/>
<path d="M10.4585 84.44H20.9355V77.0837H10.4585C9.12103 77.0837 8.22929 77.9755 8.22929 79.313V82.2108C8.2295 83.3253 9.12103 84.44 10.4585 84.44Z" fill="#DC010F"/>
<path d="M29.4059 96.4775C22.7577 96.4775 17.3683 91.0881 17.3683 84.44C17.3683 77.7918 22.7577 72.4025 29.4059 72.4025C36.054 72.4025 41.4434 77.7918 41.4434 84.44C41.4434 91.0881 36.054 96.4775 29.4059 96.4775Z" fill="#353535"/>
<path d="M29.4062 89.567C26.5746 89.567 24.2792 87.2716 24.2792 84.44C24.2792 81.6084 26.5746 79.313 29.4062 79.313C32.2378 79.313 34.5332 81.6084 34.5332 84.44C34.5332 87.2716 32.2378 89.567 29.4062 89.567Z" fill="#F2F2F2"/>
<path d="M98.5105 77.0837V84.44H110.771C112.108 84.44 113 83.3252 113 82.2107V79.3127C113 77.9752 112.108 77.0835 110.771 77.0835H98.5105V77.0837Z" fill="#DC010F"/>
<path d="M90.9312 96.4775C84.2831 96.4775 78.8937 91.0881 78.8937 84.44C78.8937 77.7918 84.2831 72.4025 90.9312 72.4025C97.5794 72.4025 102.969 77.7918 102.969 84.44C102.969 91.0881 97.5794 96.4775 90.9312 96.4775Z" fill="#353535"/>
<path d="M90.9316 89.567C88.1 89.567 85.8046 87.2716 85.8046 84.44C85.8046 81.6084 88.1 79.313 90.9316 79.313C93.7632 79.313 96.0586 81.6084 96.0586 84.44C96.0586 87.2716 93.7632 89.567 90.9316 89.567Z" fill="#F2F2F2"/>
</g>
<defs>
<linearGradient id="paint0_linear" x1="60" y1="0" x2="60" y2="120" gradientUnits="userSpaceOnUse">
<stop stop-color="#FAEDC2" stop-opacity="0"/>
<stop offset="1" stop-color="#FAEDC2"/>
</linearGradient>
<clipPath id="clip0">
<rect width="107" height="107" fill="white" transform="matrix(-1 0 0 1 113 3.29822)"/>
</clipPath>
</defs>
</svg>
