<svg width="120" height="121" viewBox="0 0 120 121" fill="none" xmlns="http://www.w3.org/2000/svg">
<g style="mix-blend-mode:multiply">
<circle r="60" transform="matrix(1 0 0 -1 60 60.2982)" fill="white"/>
<circle r="60" transform="matrix(1 0 0 -1 60 60.2982)" fill="url(#paint0_linear)"/>
</g>
<g clip-path="url(#clip0)">
<path d="M101.599 37.1649H18.1992V99.8108H101.599V37.1649Z" fill="#EBF0F4"/>
<path d="M95.5991 54.5441H65.1992V99.8107H95.5991V54.5441Z" fill="#353535"/>
<path d="M92.5992 57.5754H68.1992V96.7795H92.5992V57.5754Z" fill="#CED6E0"/>
<path d="M12 30.6982V39.7919C12 45.2482 16.2 49.4919 21.6 49.4919C27 49.4919 31.2 45.2482 31.2 39.7919V30.6982H12Z" fill="#C9000D"/>
<path d="M31.1992 30.6982V39.7919C31.1992 45.2482 35.3992 49.4919 40.7992 49.4919C46.1992 49.4919 50.3992 45.2482 50.3992 39.7919V30.6982H31.1992Z" fill="#CED6E0"/>
<path d="M50.3984 30.6982V39.792C50.3984 45.2482 54.5984 49.492 59.9984 49.492C65.3984 49.492 69.5984 45.2482 69.5984 39.792V30.6982H50.3984Z" fill="#C9000D"/>
<path d="M69.6016 30.6982V39.792C69.6016 45.2482 73.8016 49.492 79.2016 49.492C84.6016 49.492 88.8016 45.2482 88.8016 39.792V30.6982H69.6016Z" fill="#CED6E0"/>
<path d="M88.8008 30.6982V39.7919C88.8008 45.2482 93.0008 49.4919 98.4008 49.4919C103.801 49.4919 108.001 45.2482 108.001 39.7919V30.6982H88.8008Z" fill="#C9000D"/>
<path d="M35.4 11.2982H18.9999L12 30.6982H31.2L35.4 11.2982Z" fill="#DC010F"/>
<path d="M51.7993 11.2982H35.3992L31.1992 30.6982H50.3992L51.7993 11.2982Z" fill="#EBF0F4"/>
<path d="M68.1984 11.2982H51.7985L50.3984 30.6982H69.5984L68.1984 11.2982Z" fill="#DC010F"/>
<path d="M84.5993 11.2982H68.1992L69.5993 30.6982H88.7993L84.5993 11.2982Z" fill="#EBF0F4"/>
<path d="M101.002 11.2982H84.6016L88.8016 30.6982H108.002L101.002 11.2982Z" fill="#DC010F"/>
<path d="M108 99.8107H12V108.298H108V99.8107Z" fill="#CED6E0"/>
<path d="M71.9985 79.8045C73.4345 79.8045 74.5986 78.6283 74.5986 77.1773C74.5986 75.7264 73.4345 74.5502 71.9985 74.5502C70.5625 74.5502 69.3984 75.7264 69.3984 77.1773C69.3984 78.6283 70.5625 79.8045 71.9985 79.8045Z" fill="#353535"/>
<path d="M57.9993 54.5441H24.1992V85.2607H57.9993V54.5441Z" fill="#353535"/>
<path d="M54.9993 57.5754H27.1992V82.2295H54.9993V57.5754Z" fill="#CED6E0"/>
<path d="M41.8022 61.4148C41.4022 61.0107 40.4021 61.0107 40.0022 61.4148L30.2023 71.3169C29.8024 71.721 29.8024 72.7316 30.2023 73.1357C30.6022 73.5398 31.6024 73.5398 32.0023 73.1357L41.8024 63.2335C42.4022 62.6273 42.4022 61.8191 41.8022 61.4148Z" fill="#CED6E0"/>
<path d="M44.0031 67.2754C43.6032 66.8713 42.6031 66.8713 42.2031 67.2754L36.0031 73.5398C35.6031 73.9439 35.6031 74.9545 36.0031 75.3586C36.403 75.7627 37.4031 75.7627 37.8031 75.3586L44.0031 69.0939C44.6031 68.4879 44.6031 67.6795 44.0031 67.2754Z" fill="#CED6E0"/>
</g>
<defs>
<linearGradient id="paint0_linear" x1="60" y1="0" x2="60" y2="120" gradientUnits="userSpaceOnUse">
<stop stop-color="#FAEDC2" stop-opacity="0"/>
<stop offset="1" stop-color="#FAEDC2"/>
</linearGradient>
<clipPath id="clip0">
<rect width="96" height="97" fill="white" transform="translate(12 11.2982)"/>
</clipPath>
</defs>
</svg>
