<svg width="121" height="121" viewBox="0 0 121 121" fill="none" xmlns="http://www.w3.org/2000/svg">
<g style="mix-blend-mode:multiply">
<circle r="60" transform="matrix(1 0 0 -1 60.3828 60.2982)" fill="white"/>
<circle r="60" transform="matrix(1 0 0 -1 60.3828 60.2982)" fill="url(#paint0_linear)"/>
</g>
<path d="M98.6906 87.6738L103.537 72.443L95.4597 68.2892L87.3828 72.443L92.229 87.6738H98.6906Z" fill="white"/>
<path d="M93.6148 87.6738L85.9994 62.5198L65.461 71.7507L62.4609 87.6738H93.6148Z" fill="#2E2E2E"/>
<path d="M80.4627 77.0582L88.7704 87.6737H93.6166L86.0012 62.5198L79.0781 65.5198L83.6934 73.1352L80.4627 77.0582Z" fill="#1F1F1F"/>
<path d="M88.3078 61.3661L86 62.5199L90.1538 76.366L96.6155 66.4429L88.3078 61.3661Z" fill="#EBF0F4"/>
<path d="M115.766 67.3659L104.92 62.5198L97.3047 87.6737H115.766V67.3659Z" fill="#2E2E2E"/>
<path d="M102.151 87.6737L110.459 77.0582L107.228 73.1352L111.843 65.5198L104.92 62.5198L97.3047 87.6737H102.151Z" fill="#1F1F1F"/>
<path d="M102.386 61.3661L104.924 62.5199L100.771 76.366L94.0781 66.4429L102.386 61.3661Z" fill="#EBF0F4"/>
<path d="M103.768 56.2891H87.1523V62.289C89.6907 70.3658 101.229 70.3658 103.768 62.289V56.2891Z" fill="#FFD6A6"/>
<path d="M110.461 40.8274C110.23 40.8274 109.769 40.8274 109.538 41.0583L106.538 28.1353L95.2302 26.2892L83.9224 28.1353L81.1534 40.8274C80.9226 40.5966 80.4611 40.5966 80.2302 40.5966C79.0765 40.8274 78.6148 43.3658 79.5379 46.1351C80.2302 48.9043 81.8457 50.9812 82.9995 50.5197H83.2303L83.9226 53.5198C84.8458 57.2122 85.0764 58.5968 88.3073 60.9044C88.5382 60.9044 88.5382 61.1352 88.7688 61.1352C89.9226 61.8275 93.1535 63.2121 95.6919 63.2121C98.2302 63.2121 101.461 61.8275 102.615 61.1352C102.846 61.1352 102.846 60.9044 103.076 60.9044C106.076 58.5966 106.307 57.212 107.461 53.5198L108.153 50.5197H108.384C109.538 50.7506 111.153 48.9043 111.846 46.1351C112.076 43.5969 111.615 41.0583 110.461 40.8274Z" fill="#FFEBD2"/>
<path d="M92.6916 84.2122L93.6147 87.6737H97.3071L98.23 84.2122L96.6148 75.6736L98.4609 73.1352L95.4608 68.5197L92.4609 73.1352L94.0762 75.6736L92.6916 84.2122Z" fill="#C9000D"/>
<path d="M82.3061 44.5198V39.6736C82.3061 39.6736 85.3062 33.6737 84.6139 29.5199C84.6139 29.5199 97.7677 36.2121 105.614 31.1353C105.614 31.1353 107.229 38.0584 108.614 41.0585L108.153 44.7508C108.153 44.7508 109.768 44.52 110.691 36.674C110.691 36.674 112.768 29.7509 108.153 26.7508C108.153 26.7508 104.23 18.9046 93.1526 19.8278C93.1526 19.8278 85.7681 20.7509 82.9989 26.2894C80.6911 28.8278 79.3065 32.2893 79.7682 35.7508C79.9986 38.0584 80.6909 41.5199 82.3061 44.5198Z" fill="#1F1F1F"/>
<path d="M30.3843 61.8274L33.3844 65.9813L37.9997 58.1351L45.3845 31.5967H26.2305L30.3843 61.8274Z" fill="#1F1F1F"/>
<path d="M45.3828 31.5967L52.7674 58.1351L57.3827 65.9813L60.3827 61.8274L64.7674 31.5967H45.3828Z" fill="#1F1F1F"/>
<path d="M56.2311 59.0583H34.7695V66.6737C38.0002 77.2891 53.0004 77.2891 56.2311 66.6737V59.0583Z" fill="#FFD6A6"/>
<path d="M5 98.0584H40.5385L31.5385 68.2892L10.6025 78.0617L5 98.0584Z" fill="#C9000D"/>
<path d="M24.3851 87.2123L32.9237 98.0584H40.5391L31.5391 68.2892L22.5391 72.2122L28.7698 82.1353L24.3851 87.2123Z" fill="#EF525C"/>
<path d="M88.9997 98.0584L85.7688 80.0584L59.2305 68.2892L50.2305 98.0584H88.9997Z" fill="#C9000D"/>
<path d="M57.8458 98.0584L66.3842 87.2123L62.2303 82.1353L68.2305 72.2122L59.2305 68.2892L50.2305 98.0584H57.8458Z" fill="#EF525C"/>
<path d="M50.2308 98.0583L55.7692 79.8274L45.3846 74.0583L35 79.8274L40.5385 98.0583H50.2308Z" fill="white"/>
<path d="M47.9243 74.0583H43.0781V97.8276H47.9243V74.0583Z" fill="#EBF0F4"/>
<path d="M31.5352 68.289L34.5352 66.9044C34.5352 66.9044 37.0736 73.366 45.3813 74.289C45.3813 74.289 42.8429 82.1352 34.9967 79.8274L31.5352 68.289Z" fill="white"/>
<path d="M59.229 68.289L56.2289 66.9044C56.2289 66.9044 53.6905 73.366 45.3828 74.289C45.3828 74.289 47.9212 82.1352 55.7674 79.8274L59.229 68.289Z" fill="white"/>
<path d="M45.3807 84.9045C46.1454 84.9045 46.7653 84.2846 46.7653 83.5199C46.7653 82.7552 46.1454 82.1353 45.3807 82.1353C44.616 82.1353 43.9961 82.7552 43.9961 83.5199C43.9961 84.2846 44.616 84.9045 45.3807 84.9045Z" fill="white"/>
<path d="M45.3807 92.0583C46.1454 92.0583 46.7653 91.4384 46.7653 90.6737C46.7653 89.909 46.1454 89.2891 45.3807 89.2891C44.616 89.2891 43.9961 89.909 43.9961 90.6737C43.9961 91.4384 44.616 92.0583 45.3807 92.0583Z" fill="white"/>
<path d="M65.0008 36.6738C64.5393 36.6738 64.3085 36.6738 63.847 36.9046L59.924 20.5201L45.3856 17.9817L31.078 20.5201L26.9241 36.674C26.6933 36.674 26.2318 36.4432 26.001 36.674C24.6163 37.1355 24.1549 40.3664 25.0778 43.8279C26.001 47.2894 27.847 50.0587 29.4625 49.5972H29.6933L30.6165 53.2896C31.7703 57.9049 34.5395 62.2896 38.4627 65.0588C38.6936 65.0588 38.6936 65.2897 38.9242 65.2897C40.3088 66.2128 42.1549 68.0589 45.3858 68.0589C48.8473 68.0589 50.4628 66.2128 51.8474 65.2897C52.0782 65.2897 52.0782 65.0588 52.3089 65.0588C56.2319 62.0588 59.0011 57.9049 60.1551 53.2896L61.0782 49.5972H61.3091C62.6937 50.0587 64.7706 47.5203 65.6938 43.8279C66.8471 40.1353 66.3854 37.1352 65.0008 36.6738Z" fill="#FFEBD2"/>
<path d="M71.4588 37.5967C71.4588 37.5967 71.4588 55.8276 57.3818 65.9813C57.6127 65.0582 63.6126 50.2891 60.6125 33.9043H30.151C27.1509 50.2889 33.1511 65.0582 33.3817 65.9813C19.3047 55.8276 19.3047 37.5967 19.3047 37.5967C23.4588 2.7505 45.382 8.05833 45.382 8.05833C45.382 8.05833 67.305 2.7505 71.4588 37.5967Z" fill="#1F1F1F"/>
<defs>
<linearGradient id="paint0_linear" x1="60" y1="0" x2="60" y2="120" gradientUnits="userSpaceOnUse">
<stop stop-color="#FAEDC2" stop-opacity="0"/>
<stop offset="1" stop-color="#FAEDC2"/>
</linearGradient>
</defs>
</svg>
