<svg width="121" height="121" viewBox="0 0 121 121" fill="none" xmlns="http://www.w3.org/2000/svg">
<g style="mix-blend-mode:multiply">
<circle r="60" transform="matrix(1 0 0 -1 60.1875 60.2982)" fill="white"/>
<circle r="60" transform="matrix(1 0 0 -1 60.1875 60.2982)" fill="url(#paint0_linear)"/>
</g>
<g clip-path="url(#clip0)">
<path d="M74.6959 54.0553H65.9684C64.6472 54.0553 63.5663 52.9744 63.5663 51.6532L62.3654 31.2992C62.3654 31.2992 60.4219 14.4395 70.5023 12.224C70.5023 12.224 74.6009 4.24832 87.7273 6.80356C87.9067 6.83856 88.0792 6.90295 88.2534 6.95689C91.2774 7.89488 94.0886 9.55448 96.4259 11.8798C103.574 18.9931 102.137 27.3973 102.316 28.4426C102.316 34.2814 102.408 27.7915 101.115 51.6534C101.115 52.9746 100.034 54.0555 98.7132 54.0555H89.4283" fill="#1F1F1F"/>
<path d="M76.214 54.0553V51.199C70.8187 48.8149 67.455 43.7129 67.1715 38.1198C67.1696 38.0827 67.1638 37.9649 67.163 37.9429C67.1553 37.7451 67.1503 37.5469 67.1503 37.3471C67.153 28.3606 67.1448 28.906 67.157 28.7583C67.0669 23.9621 67.809 13.9002 75.4376 12.2236C75.4376 12.2236 77.9494 7.33724 85.3363 6.43947C79.7078 5.82092 73.1055 7.49328 70.5027 12.2236C63.7005 13.7187 62.0641 22.0012 62.2254 28.926C62.2277 29.0225 62.2302 29.1166 62.2331 29.2083C62.273 30.492 62.366 31.2989 62.366 31.2989L63.5669 51.6528C63.5669 52.974 64.6478 54.0549 65.969 54.0549C68.083 54.0553 73.9037 54.0553 76.214 54.0553Z" fill="#1F1F1F"/>
<path d="M54.822 98.5808L57.4041 75.5075C58.309 68.5404 57.938 65.8637 60.1862 63.1358C59.4918 62.2916 58.5007 61.5042 57.8471 61.1051L57.7752 61.0873C55.3443 59.6312 53.2976 59.5702 48.7803 58.3273L44.161 56.1163V50.5984C40.2909 52.3096 35.8407 52.2499 32.1153 50.6299L32.0954 56.1391L27.4957 58.3275C23.0075 59.5625 20.9366 59.6285 18.5009 61.0875L18.4289 61.1053C18.224 61.2304 18.0074 61.3812 17.7939 61.5502C14.3133 64.049 14.2582 67.2951 13.9583 69.6939L12.576 82.0471C10.629 99.7261 10.688 98.3039 10.688 99.6667C10.6574 101.91 12.034 105.298 16.2157 105.298C16.6036 105.298 59.8559 105.3 60.1862 105.295C56.44 105.232 54.4939 102.375 54.822 98.5808Z" fill="#FFD6A6"/>
<path d="M109.65 98.5809C106.132 67.4327 106.33 68.3117 106.015 66.7892C105.504 64.3179 104.014 62.3682 101.946 61.1052L101.875 61.0874C100.994 60.5601 100.013 60.1446 98.9595 59.841L88.818 57.3163C88.4883 57.1671 88.2601 56.6761 88.2601 56.1163V51.2247C84.4378 52.8917 79.983 52.8652 76.2144 51.1992V56.1165C76.2144 56.6763 75.9863 57.1672 75.6566 57.3165C67.0775 59.602 65.1694 59.5487 62.6 61.0876L62.5283 61.1054C59.6902 62.8387 58.5933 65.1878 58.215 68.2889L54.8251 98.5809C54.4853 102.508 56.5672 105.298 60.3151 105.298C66.2793 105.298 99.3926 105.298 104.16 105.298C108.341 105.298 109.718 101.911 109.687 99.6668C109.687 99.6645 109.687 99.6622 109.687 99.6598C109.694 99.2536 109.676 98.8847 109.65 98.5809Z" fill="#FFD6A6"/>
<path d="M59.7634 99.6668C59.7634 99.6645 59.7634 99.6622 59.7634 99.6599C59.7564 99.2536 59.7748 98.8847 59.8011 98.5809L63.1911 66.4961C63.5534 63.5245 64.5657 61.177 67.4196 59.366C66.5818 59.6197 64.6718 59.8441 62.5961 61.0874L62.5244 61.1052C59.6862 62.8385 58.5891 65.1878 58.2111 68.2887L54.8211 98.5807C54.4816 102.508 56.5633 105.298 60.3112 105.298C63.3939 105.298 62.2082 105.298 65.2913 105.298C61.1092 105.298 59.7328 101.911 59.7634 99.6668Z" fill="#D8A373"/>
<path d="M107.795 82.0432C106.196 67.8534 106.265 68.0179 106.011 66.7889C105.498 64.3037 103.991 62.3558 101.942 61.1049C101.922 61.0999 101.85 61.0821 101.871 61.0872C100.991 60.5599 100.009 60.1443 98.9556 59.8408L88.8141 57.3161C88.4845 57.1668 88.2563 56.6759 88.2563 56.1161V51.2245V51.199C84.403 52.9013 79.9707 52.8603 76.2106 51.199V51.2245V56.1161C76.2106 56.6759 75.9824 57.1668 75.6528 57.3161C67.0736 59.6016 65.1656 59.548 62.5962 61.0872C62.5759 61.0922 62.504 61.11 62.5245 61.1049C59.7119 62.822 58.5888 65.1922 58.2112 68.2884L56.6719 82.043L66.3742 83.0611C66.8901 83.1152 67.2738 83.5632 67.2476 84.0814L66.1818 105.298C78.0582 105.298 86.472 105.298 98.3433 105.298L97.226 84.1636C97.1962 83.5999 97.6131 83.1115 98.1746 83.0525L107.795 82.0432Z" fill="#DC010F"/>
<path d="M56.6719 82.0432L61.4952 82.5493L63.1914 66.4958C63.5535 63.5249 64.5656 61.1769 67.4199 59.3657C66.2139 59.689 64.4586 59.9717 62.5964 61.0874C62.5761 61.0924 62.5042 61.1102 62.5247 61.1052C60.449 62.3723 58.9647 64.3269 58.4556 66.7892C58.143 68.2989 58.2021 68.6284 56.6719 82.0432Z" fill="#A82626"/>
<path d="M57.8098 61.1052C57.7895 61.1002 57.7176 61.0824 57.7379 61.0874C55.3015 59.6279 53.2222 59.5595 48.7745 58.3353L48.7788 58.3274L44.1594 56.1163L44.126 56.1668C44.1258 56.1606 44.1254 56.1546 44.125 56.1486L38.1005 61.8208L32.0936 56.1392L27.494 58.3276C23.0056 59.5626 20.9349 59.6285 18.4991 61.0876L18.4272 61.1054C15.5889 62.8385 14.4921 65.1885 14.1139 68.2889L12.5742 82.0471L22.091 83.0456C22.691 83.1087 23.137 83.6298 23.1069 84.2323L22.0492 105.298C31.827 105.298 43.8417 105.298 54.2106 105.298L53.0934 84.1664C53.0634 83.6012 53.4814 83.1116 54.0445 83.0524L56.5883 82.7856C58.4535 67.3124 57.908 65.9235 60.1676 63.1579C59.672 62.5509 58.3504 61.4353 57.8098 61.1052Z" fill="#1F1F1F"/>
<path d="M92.8767 58.3274L88.8152 57.3163C88.4855 57.1671 88.2574 56.6761 88.2574 56.1164V50.6271V50.6016C84.372 52.3182 79.9342 52.2463 76.2117 50.6016V50.6271V56.1164C76.2117 56.6761 75.9835 57.1671 75.6539 57.3163L71.5312 58.3427C76.4861 66.6761 87.9258 66.6794 92.8767 58.3274Z" fill="#FFD6A6"/>
<path d="M19.2227 30.3713V25.1789C19.2227 9.89499 36.5012 1.0523 48.8977 9.6881C58.6213 16.4771 56.7693 26.4606 56.9832 30.3713" fill="#4C4846"/>
<path d="M19.2227 30.3713V25.1789C19.2227 9.89499 36.5012 1.0523 48.8977 9.6881C58.6213 16.4771 56.7693 26.4606 56.9832 30.3713" fill="#1F1F1F"/>
<path d="M39.9853 6.39267C29.0053 5.30251 19.2227 13.8873 19.2227 25.1789V30.3713H22.9875V25.1789C22.9875 15.4722 30.3578 7.34922 39.9853 6.39267Z" fill="#1F1F1F"/>
<path d="M57.9232 32.0597C57.9232 34.2356 55.8169 35.9992 53.2188 35.9992V28.1204C55.8169 28.1204 57.9232 29.8841 57.9232 32.0597Z" fill="#FFD6A6"/>
<path d="M18.2812 32.0597C18.2812 34.2356 20.3875 35.9992 22.9859 35.9992V28.1204C20.3875 28.1204 18.2812 29.8841 18.2812 32.0597Z" fill="#FFD6A6"/>
<path d="M49.736 22.6469C49.6811 21.1371 48.4378 20.3099 47.2384 20.4967C46.958 20.5402 46.6484 20.5857 46.45 20.6137C40.4907 21.4596 34.8255 21.4063 28.9684 20.4967C27.7781 20.3113 26.525 21.1251 26.4708 22.6471C26.389 24.89 25.4567 26.5577 24.0361 27.5965C23.4442 28.0296 23.0076 28.1777 22.9877 28.1887C22.9877 37.9731 22.8709 38.627 23.3951 40.8435C23.897 42.9596 24.8251 44.8512 26.0392 46.4561C33.0723 55.7573 47.7972 53.9414 52.1632 42.9086C53.6084 39.2578 53.2189 36.4862 53.2189 28.1887C53.1625 28.1466 49.8922 26.9868 49.736 22.6469Z" fill="#FFEBD2"/>
<path d="M39.5975 72.6776V60.4142L38.1035 61.8209L36.6094 60.4076V72.6776C36.6094 73.5028 37.2782 74.1717 38.1035 74.1717C38.9287 74.1717 39.5975 73.5028 39.5975 72.6776Z" fill="#484848"/>
<path d="M44.1605 56.1163L38.1016 61.8208L41.3722 65.1168C41.9968 65.7462 43.0318 65.6849 43.5779 64.9861L48.7798 58.3274L44.1605 56.1163Z" fill="#484848"/>
<path d="M32.0971 56.1392L38.104 61.8208L34.8334 65.1168C34.2088 65.7462 33.1738 65.6849 32.6277 64.9861L27.4258 58.3274L32.0971 56.1392Z" fill="#484848"/>
<path d="M95.8591 32.4026C96.7097 32.4425 97.3799 33.1426 97.3799 33.9942V35.1371C97.3759 37.1668 97.5172 39.1377 96.738 41.7198C95.9531 44.3226 94.4743 46.7139 92.2518 48.691C82.8751 57.0414 67.808 50.7377 67.1697 38.1199C67.1668 38.0628 67.1689 38.1361 67.1612 37.9429C67.1535 37.7451 67.1484 37.5469 67.1484 37.3472C67.1484 35.547 67.1484 31.4385 67.1484 29.6797V28.914C67.1484 28.0246 67.7751 27.2641 68.6452 27.08C70.189 26.7536 72.6835 25.8667 74.9464 23.4582C75.5151 22.853 76.4852 22.8845 77.0138 23.5249C79.2096 26.1855 85.1389 31.9016 95.8591 32.4026Z" fill="#FFEBD2"/>
<path d="M95.7904 59.0529L92.8765 58.3276C90.6451 62.0919 86.6987 64.5955 82.1992 64.5955C82.1992 64.5953 95.8507 78.2484 95.7904 59.0529Z" fill="#EF525C"/>
<path d="M68.6721 59.0529L71.586 58.3276C73.8174 62.0919 77.7638 64.5955 82.2633 64.5955C82.2633 64.5953 68.6117 78.2484 68.6721 59.0529Z" fill="#EF525C"/>
<path d="M70.5166 59.9129C64.7902 52.694 53.7316 53.4773 48.9752 61.1721C46.1918 65.6688 47.2419 69.7659 47.0113 71.0194H73.3651C73.2816 68.4451 73.9914 64.2896 70.5166 59.9129Z" fill="#1F1F1F"/>
<path d="M77.2849 82.0487C76.1273 78.4571 74.6262 76.2151 73.4819 75.046C72.8214 75.6969 71.9055 76.1596 70.8633 76.3257C72.7748 79.082 72.356 81.8329 72.2607 83.4697C72.2172 84.2164 72.8893 84.8027 73.6215 84.6507L76.0613 84.1447C77.0105 83.9479 77.5823 82.971 77.2849 82.0487Z" fill="#1F1F1F"/>
<path d="M74.7682 72.7736C74.7682 74.8834 72.7261 76.5931 70.207 76.5931V68.9546C72.7261 68.9546 74.7682 70.6643 74.7682 72.7736Z" fill="#FFD6A6"/>
<path d="M43.0867 82.0487C44.2443 78.4571 45.7454 76.2151 46.8897 75.046C47.5502 75.6969 48.4661 76.1596 49.5083 76.3257C47.5968 79.082 48.0156 81.8329 48.1109 83.4697C48.1544 84.2164 47.4823 84.8027 46.7499 84.6507L44.3101 84.1447C43.3613 83.9479 42.7895 82.971 43.0867 82.0487Z" fill="#1F1F1F"/>
<path d="M45.6055 72.7736C45.6055 74.8834 47.6475 76.5931 50.1666 76.5931V68.9546C47.6475 68.9546 45.6055 70.6643 45.6055 72.7736Z" fill="#FFD6A6"/>
<path d="M77.1282 105.298L76.089 96.012C75.852 94.0674 75.1681 92.4341 73.2298 91.2503L73.1823 91.2385C71.4861 90.2224 70.2554 90.2648 64.5275 88.7388C63.8943 88.452 64.2619 87.2234 64.1578 84.1032C61.5987 85.2231 58.6365 85.1765 56.1733 84.0862C56.0719 87.1339 56.4393 88.4507 55.8036 88.7388C50.0867 90.2619 48.8471 90.2213 47.149 91.2385L47.1014 91.2503C45.7352 92.0849 44.744 93.3744 44.4043 95.0179C44.2016 95.9979 44.2546 96.0773 43.2031 105.298H77.1282Z" fill="#FFD6A6"/>
<path d="M43.207 105.298C51.4341 105.298 68.9 105.298 77.1323 105.298L76.0931 96.0119C75.8565 94.0696 75.1697 92.4321 73.2339 91.2503L73.1864 91.2385C71.5047 90.2311 70.1491 90.2286 65.6083 89.0067C65.6083 89.0495 65.6083 90.2288 65.6083 90.2083C65.6083 91.0691 65.406 91.8889 65.0477 92.6115C64.9885 92.7312 64.8924 92.9081 64.8006 93.0562C64.7963 93.063 64.737 93.1566 64.7325 93.1634C64.6376 93.309 64.5361 93.4489 64.4367 93.574C64.3897 93.6332 64.3261 93.7098 64.276 93.7662C64.2679 93.7753 64.26 93.7844 64.2518 93.7935C64.2199 93.8301 64.1876 93.866 64.1546 93.9016C64.1511 93.9053 64.1474 93.9091 64.1439 93.913C64.1432 93.9138 64.1426 93.9144 64.142 93.9151C64.137 93.9205 64.132 93.9258 64.1269 93.9312C64.0886 93.9716 64.0496 94.011 64.0101 94.0501C63.9972 94.0631 63.9844 94.0764 63.9715 94.0892C63.9204 94.1388 63.8684 94.1876 63.8156 94.2353C63.8005 94.2489 63.7849 94.2618 63.7698 94.2754C63.7367 94.3049 63.7023 94.333 63.6689 94.3622C63.6636 94.3668 63.6584 94.3713 63.6532 94.3757C63.6329 94.3925 63.6122 94.409 63.5915 94.4256C63.5561 94.454 63.5207 94.4824 63.4848 94.5099C63.4622 94.5273 63.4392 94.5443 63.4161 94.5615C63.381 94.5876 63.3456 94.6134 63.3098 94.6387C63.2922 94.6511 63.2744 94.6634 63.2566 94.6756C63.2506 94.6797 63.2448 94.6839 63.2388 94.688C63.2019 94.7131 63.1644 94.7379 63.1267 94.7622C63.1209 94.7659 63.1153 94.7696 63.1095 94.7733C63.0923 94.7845 63.0751 94.7957 63.0577 94.8065C63.0258 94.8264 62.9935 94.8456 62.961 94.8647C62.9501 94.8711 62.9395 94.8779 62.9287 94.8841C62.924 94.8868 62.9192 94.8897 62.9146 94.8924C62.9005 94.9009 62.8865 94.9094 62.8722 94.9175C62.81 94.9531 62.7469 94.9875 62.6831 95.0206C62.6744 95.025 62.6657 95.0293 62.6568 95.0335C62.6539 95.0349 62.651 95.0364 62.6481 95.038C62.6375 95.0434 62.6268 95.0484 62.6162 95.0536C62.5739 95.0749 62.5315 95.0962 62.4886 95.1165C62.4654 95.1273 62.442 95.1376 62.4188 95.148C62.3759 95.1673 62.3328 95.1865 62.2892 95.2048C62.263 95.2159 62.2365 95.2265 62.21 95.2371C62.1684 95.254 62.1266 95.2702 62.0847 95.2859C62.0574 95.2961 62.03 95.3062 62.0025 95.3158C61.9598 95.3311 61.9166 95.3456 61.8733 95.3597C61.8519 95.3667 61.8304 95.3736 61.8089 95.3806C61.8035 95.3823 61.7983 95.3841 61.7929 95.3858C61.7809 95.3895 61.7685 95.3928 61.7565 95.3965C61.7212 95.4071 61.6858 95.4175 61.6502 95.4274C61.6328 95.4322 61.6156 95.4373 61.598 95.4421C61.5922 95.4436 61.5864 95.4454 61.5806 95.4469C61.5094 95.4659 61.4377 95.4835 61.3654 95.4995C61.3547 95.5018 61.3439 95.504 61.3333 95.5063C61.3012 95.5132 61.2693 95.52 61.237 95.5264C61.1511 95.5432 61.0645 95.5579 60.9771 95.5707C60.8025 95.5962 60.6252 95.6132 60.4456 95.6215C60.4241 95.6227 60.4028 95.6231 60.3816 95.6237C60.3702 95.624 60.3586 95.6244 60.347 95.6248C60.3156 95.6258 60.2845 95.6264 60.2534 95.6267C60.2447 95.6267 60.236 95.6267 60.2275 95.6269C60.2253 95.6269 60.2232 95.6269 60.2211 95.6269C60.2102 95.6269 60.1994 95.6271 60.1886 95.6271C60.1778 95.6271 60.1669 95.6269 60.1561 95.6269C60.154 95.6269 60.1519 95.6269 60.1495 95.6269C60.1408 95.6269 60.1323 95.6269 60.1236 95.6267C60.0925 95.6264 60.0614 95.6258 60.03 95.6248C60.0184 95.6244 60.007 95.624 59.9954 95.6237C59.9742 95.6229 59.9527 95.6225 59.9314 95.6215C59.7518 95.6132 59.5745 95.596 59.3999 95.5707C59.3125 95.5579 59.2259 95.5432 59.14 95.5264C59.1077 95.52 59.0758 95.5132 59.0437 95.5063C59.0331 95.504 59.0223 95.502 59.0116 95.4995C58.9393 95.4835 58.8676 95.4657 58.7964 95.4469C58.7906 95.4454 58.7848 95.4436 58.779 95.4421C58.7616 95.4373 58.7442 95.4322 58.7268 95.4274C58.6916 95.4175 58.6566 95.4073 58.6216 95.3968C58.6092 95.393 58.5965 95.3897 58.5841 95.3858C58.5787 95.3841 58.5735 95.3823 58.5681 95.3806C58.5466 95.3738 58.5251 95.3669 58.5037 95.3597C58.4604 95.3456 58.4174 95.3311 58.3745 95.3158C58.347 95.3062 58.3196 95.2961 58.2923 95.2859C58.2504 95.2702 58.2084 95.254 58.167 95.2371C58.1405 95.2265 58.114 95.2159 58.0877 95.2048C58.0442 95.1865 58.0011 95.1673 57.9582 95.148C57.935 95.1376 57.9114 95.1273 57.8884 95.1165C57.8455 95.0964 57.8031 95.0751 57.7608 95.0536C57.7501 95.0484 57.7395 95.0434 57.7289 95.038C57.726 95.0364 57.7231 95.0351 57.7202 95.0335C57.7115 95.0293 57.7026 95.025 57.6939 95.0206C57.6301 94.9875 57.567 94.9531 57.5048 94.9175C57.4907 94.9094 57.4765 94.9009 57.4624 94.8924C57.4578 94.8897 57.4529 94.8868 57.4483 94.8841C57.4375 94.8777 57.4268 94.8711 57.4162 94.8647C57.3837 94.8456 57.3514 94.8264 57.3195 94.8065C57.3021 94.7957 57.2849 94.7845 57.2677 94.7733C57.2619 94.7696 57.2561 94.7659 57.2505 94.7622C56.1675 94.0621 55.3687 93.0025 54.999 91.7762C54.6684 90.68 54.7979 89.8993 54.7689 88.9974L53.6184 89.2838C50.0096 90.2688 48.7632 90.2736 47.1521 91.2387L47.1046 91.2505C45.7557 92.0744 44.7491 93.3664 44.4074 95.0181C44.2051 95.9955 44.2454 96.1865 43.207 105.298Z" fill="#C9000D"/>
<path d="M51.9194 105.298L52.0582 100.974C52.0847 100.15 51.4377 99.4596 50.6129 99.4332C49.788 99.4009 49.0981 100.053 49.0716 100.878L48.9297 105.298H51.9194Z" fill="#EF525C"/>
<path d="M71.4418 105.298L71.2999 100.878C71.2734 100.054 70.5899 99.4033 69.7586 99.4331C68.934 99.4596 68.2868 100.15 68.3133 100.974L68.4521 105.298H71.4418Z" fill="#EF525C"/>
<path d="M59.4964 65.629C57.2478 69.3693 52.4745 68.7939 50.7797 68.4514C50.4626 68.3874 50.1672 68.6311 50.1672 68.9546C50.1672 75.0407 49.9814 76.379 50.5928 78.4005C51.8332 82.5137 55.6305 85.4709 60.067 85.5202C65.5964 85.5892 70.2065 81.1377 70.2065 75.5023C70.2065 72.9546 70.2065 71.1606 70.2065 68.9548C70.2065 68.6313 69.9109 68.3876 69.5939 68.4516C67.8992 68.7941 63.1259 69.3693 60.8773 65.6292C60.5637 65.1077 59.8098 65.1077 59.4964 65.629Z" fill="#FFEBD2"/>
</g>
<defs>
<linearGradient id="paint0_linear" x1="60" y1="0" x2="60" y2="120" gradientUnits="userSpaceOnUse">
<stop stop-color="#FAEDC2" stop-opacity="0"/>
<stop offset="1" stop-color="#FAEDC2"/>
</linearGradient>
<clipPath id="clip0">
<rect width="99" height="99" fill="white" transform="translate(10.6875 6.29834)"/>
</clipPath>
</defs>
</svg>
