<svg width="68" height="72" viewBox="0 0 68 72" fill="none" xmlns="http://www.w3.org/2000/svg">
<path d="M10.0472 67.0543H2.72754C1.22115 67.0543 0 65.8332 0 64.3268V3.12988C0.00014989 1.62349 1.2213 0.402344 2.72754 0.402344H49.5974C51.1038 0.402344 52.3249 1.62349 52.3249 3.12988V10.3232L10.0472 67.0543Z" fill="#353535"/>
<path d="M41.5849 71.7498H7.20801C5.70162 71.7498 4.48047 70.5286 4.48047 69.0222V7.66602C4.48047 6.15963 5.70162 4.93848 7.20801 4.93848H54.3964C55.9028 4.93848 57.1239 6.15963 57.1239 7.66602V56.8292C57.1239 57.5209 56.8405 58.1825 56.3395 58.6596L43.3287 71.0523C42.8583 71.5001 42.234 71.7498 41.5849 71.7498Z" fill="#EBF0F4"/>
<path d="M46.9488 26.4227H14.7575C13.4385 26.4227 12.3691 25.3534 12.3691 24.0343C12.3691 22.7153 13.4385 21.646 14.7575 21.646H46.9488C48.2678 21.646 49.3371 22.7153 49.3371 24.0343C49.3371 25.3534 48.2678 26.4227 46.9488 26.4227Z" fill="#CED6E0"/>
<path d="M46.9488 35.9544H14.7575C13.4385 35.9544 12.3691 34.8851 12.3691 33.5661C12.3691 32.247 13.4385 31.1777 14.7575 31.1777H46.9488C48.2678 31.1777 49.3371 32.247 49.3371 33.5661C49.3371 34.8853 48.2678 35.9544 46.9488 35.9544Z" fill="#CED6E0"/>
<path d="M46.9488 45.4866H14.7575C13.4385 45.4866 12.3691 44.4173 12.3691 43.0983C12.3691 41.7793 13.4385 40.71 14.7575 40.71H46.9488C48.2678 40.71 49.3371 41.7793 49.3371 43.0983C49.3371 44.4173 48.2678 45.4866 46.9488 45.4866Z" fill="#CED6E0"/>
<path d="M33.3564 55.0186H14.7575C13.4385 55.0186 12.3691 53.9493 12.3691 52.6303C12.3691 51.3113 13.4385 50.2419 14.7575 50.2419H33.3564C34.6754 50.2419 35.7447 51.3113 35.7447 52.6303C35.7447 53.9493 34.6754 55.0186 33.3564 55.0186Z" fill="#CED6E0"/>
<path d="M45.3232 57.9124C43.8169 57.9124 42.5957 59.1335 42.5957 60.6399V71.536C42.8636 71.4189 43.1125 71.2576 43.3279 71.0523L56.3388 58.6596C56.5653 58.4439 56.7445 58.1892 56.876 57.9124H45.3232Z" fill="#CED6E0"/>
<path d="M48.8651 71.7496C58.8817 71.7496 67.0018 63.6631 67.0018 53.6879C67.0018 43.7127 58.8817 35.6262 48.8651 35.6262C38.8486 35.6262 30.7285 43.7127 30.7285 53.6879C30.7285 63.6631 38.8486 71.7496 48.8651 71.7496Z" fill="#DC010F"/>
<path d="M48.9376 66.8034C56.181 66.8034 62.0529 60.9315 62.0529 53.6881C62.0529 46.4447 56.181 40.5728 48.9376 40.5728C41.6942 40.5728 35.8223 46.4447 35.8223 53.6881C35.8223 60.9315 41.6942 66.8034 48.9376 66.8034Z" fill="#EBF0F4"/>
<path d="M47.9663 62.1568V60.6444C46.1677 60.342 44.6687 59.5858 43.1699 58.2248L45.1185 55.9564C46.1678 56.8637 47.2169 57.4687 47.9665 57.7711V54.7466C46.4675 54.4442 45.4184 53.8393 44.8188 53.2343C44.2192 52.6294 43.7695 51.722 43.7695 50.5122C43.7695 49.3025 44.2192 48.3951 44.9686 47.6389C45.718 46.8827 46.7673 46.4291 47.9663 46.2779V45.2192H50.0647V46.2779C51.4138 46.4291 52.7628 47.034 54.1118 47.9413L52.463 50.361C51.5637 49.756 50.8143 49.3023 50.0647 49.1512V52.1757C51.5637 52.6294 52.6128 53.083 53.3624 53.688C54.1118 54.2929 54.4116 55.2003 54.4116 56.4101C54.4116 57.6198 53.962 58.5272 53.2126 59.2834C52.4632 60.0396 51.4139 60.4932 50.0649 60.6444V62.1568H47.9663ZM47.9663 49.0001C47.3667 49.1514 47.067 49.605 47.067 50.2098C47.067 50.8148 47.3667 51.1172 47.9663 51.4196V49.0001ZM51.264 56.5615C51.264 56.2591 51.114 55.9565 50.9642 55.8054C50.8143 55.6541 50.5146 55.503 50.2148 55.2004V57.7712C50.8143 57.62 51.264 57.1663 51.264 56.5615Z" fill="#DC010F"/>
</svg>
