<svg width="74" height="59" viewBox="0 0 74 59" fill="none" xmlns="http://www.w3.org/2000/svg">
<path d="M66.2118 40.0754H11.9399C9.64527 40.0754 7.78516 38.215 7.78516 35.9203C7.78516 33.6254 9.64527 31.7651 11.9399 31.7651H66.2118C64.877 34.3494 64.877 37.491 66.2118 40.0754Z" fill="#EBF0F4"/>
<path d="M12.5451 43.5363C10.4998 43.5363 8.57903 42.734 7.13617 41.2771C5.6939 39.8205 4.91039 37.8915 4.93005 35.8455C4.97052 31.6873 8.42409 28.3044 12.6289 28.3044H66.817C68.0578 28.3044 69.0671 29.3138 69.0671 30.5546C69.0671 31.7954 68.0577 32.8049 66.817 32.8049H12.5451C10.8275 32.8049 9.43003 34.2025 9.43003 35.9202C9.43003 37.638 10.8275 39.0356 12.5451 39.0356H66.8172C68.058 39.0356 69.0672 40.045 69.0672 41.2858C69.0672 42.5266 68.0578 43.536 66.8172 43.536H12.5451V43.5363Z" fill="#CED6E0"/>
<path d="M2.71484 46.9971H65.9204C68.215 46.9971 70.0751 48.8575 70.0751 51.1522C70.0751 53.4471 68.215 55.3073 65.9204 55.3073H2.71484C4.04959 52.7231 4.04959 49.5814 2.71484 46.9971Z" fill="#EBF0F4"/>
<path d="M2.71491 58.7682C1.47425 58.7682 0.464844 57.7588 0.464844 56.518C0.464844 55.2772 1.47425 54.2678 2.71491 54.2678H65.9204C67.6381 54.2678 69.0355 52.8702 69.0355 51.1524C69.0355 49.4345 67.6381 48.037 65.9204 48.037H2.71491C1.47425 48.037 0.464844 47.0276 0.464844 45.7868C0.464844 44.546 1.47425 43.5366 2.71491 43.5366H65.9206C67.9659 43.5366 69.8867 44.3389 71.3294 45.7958C72.7718 47.2525 73.555 49.1814 73.5355 51.2274C73.495 55.3856 70.0415 58.7685 65.8366 58.7685H2.71491V58.7682Z" fill="#353535"/>
<path d="M57.8424 28.3045H16.1523L20.6191 13.2649H53.3756L57.8424 28.3045Z" fill="#C9000D"/>
<path d="M33.1466 0.497224L3.51552 8.28023C1.92712 8.69749 1.92712 10.9523 3.51552 11.3696L33.1466 19.1526C35.6704 19.8156 38.3225 19.8156 40.8463 19.1526L70.4774 11.3696C72.0658 10.9523 72.0658 8.69749 70.4774 8.28023L40.8463 0.497224C38.3225 -0.165741 35.6704 -0.165741 33.1466 0.497224Z" fill="#DC010F"/>
<path d="M47.1034 29.603C46.4867 29.603 45.9868 29.103 45.9868 28.4863V18.0228L36.2455 9.1901C35.7886 8.77587 35.7541 8.06955 36.1683 7.61268C36.5825 7.15582 37.2887 7.12128 37.7457 7.53551L47.8535 16.7007C48.087 16.9124 48.2201 17.2127 48.2201 17.528V28.4863C48.2201 29.103 47.7201 29.603 47.1034 29.603Z" fill="#353535"/>
<path d="M50.3175 34.7665H43.8906C43.8906 34.7665 43.8906 25.0679 47.104 25.0679C50.3175 25.0679 50.3175 34.7665 50.3175 34.7665Z" fill="#353535"/>
</svg>
