<svg width="81" height="81" viewBox="0 0 81 81" fill="none" xmlns="http://www.w3.org/2000/svg">
<g clip-path="url(#clip0)">
<path d="M38.9548 67.4999H8.09901C5.11672 67.4999 2.69922 65.0822 2.69922 62.1001V56.7H44.1416L38.9548 67.4999Z" fill="#CED6E0"/>
<path d="M72.9044 24.2999V46.9859V62.0997H8.09901C5.11672 62.0997 2.69922 59.682 2.69922 56.6998V24.2999L40.5019 10.7998L72.9044 24.2999Z" fill="#EBF0F4"/>
<path d="M12.2359 35.1001H9.36719C8.66825 35.1001 8.10156 34.5335 8.10156 33.8345V30.9658C8.10156 30.2669 8.66825 29.7002 9.36719 29.7002H12.2359C12.9348 29.7002 13.5015 30.2669 13.5015 30.9658V33.8345C13.5015 34.5335 12.9348 35.1001 12.2359 35.1001Z" fill="#CED6E0"/>
<path d="M23.0347 35.1001H20.166C19.4671 35.1001 18.9004 34.5335 18.9004 33.8345V30.9658C18.9004 30.2669 19.4671 29.7002 20.166 29.7002H23.0347C23.7337 29.7002 24.3003 30.2669 24.3003 30.9658V33.8345C24.3003 34.5335 23.7337 35.1001 23.0347 35.1001Z" fill="#CED6E0"/>
<path d="M33.8355 35.1001H30.9668C30.2679 35.1001 29.7012 34.5335 29.7012 33.8345V30.9658C29.7012 30.2669 30.2679 29.7002 30.9668 29.7002H33.8355C34.5344 29.7002 35.1011 30.2669 35.1011 30.9658V33.8345C35.1011 34.5335 34.5346 35.1001 33.8355 35.1001Z" fill="#CED6E0"/>
<path d="M44.6363 35.1001H41.7676C41.0686 35.1001 40.502 34.5335 40.502 33.8345V30.9658C40.502 30.2669 41.0686 29.7002 41.7676 29.7002H44.6363C45.3352 29.7002 45.9019 30.2669 45.9019 30.9658V33.8345C45.9019 34.5335 45.3352 35.1001 44.6363 35.1001Z" fill="#CED6E0"/>
<path d="M55.4351 35.1001H52.5664C51.8675 35.1001 51.3008 34.5335 51.3008 33.8345V30.9658C51.3008 30.2669 51.8675 29.7002 52.5664 29.7002H55.4351C56.134 29.7002 56.7007 30.2669 56.7007 30.9658V33.8345C56.7007 34.5335 56.1342 35.1001 55.4351 35.1001Z" fill="#CED6E0"/>
<path d="M66.2339 35.1001H63.3652C62.6663 35.1001 62.0996 34.5335 62.0996 33.8345V30.9658C62.0996 30.2669 62.6663 29.7002 63.3652 29.7002H66.2339C66.9329 29.7002 67.4996 30.2669 67.4996 30.9658V33.8345C67.4996 34.5335 66.9329 35.1001 66.2339 35.1001Z" fill="#CED6E0"/>
<path d="M12.2359 45.8999H9.36719C8.66825 45.8999 8.10156 45.3333 8.10156 44.6343V41.7656C8.10156 41.0667 8.66825 40.5 9.36719 40.5H12.2359C12.9348 40.5 13.5015 41.0667 13.5015 41.7656V44.6343C13.5015 45.3334 12.9348 45.8999 12.2359 45.8999Z" fill="#CED6E0"/>
<path d="M23.0347 45.8999H20.166C19.4671 45.8999 18.9004 45.3333 18.9004 44.6343V41.7656C18.9004 41.0667 19.4671 40.5 20.166 40.5H23.0347C23.7337 40.5 24.3003 41.0667 24.3003 41.7656V44.6343C24.3003 45.3334 23.7337 45.8999 23.0347 45.8999Z" fill="#CED6E0"/>
<path d="M33.8355 45.8999H30.9668C30.2679 45.8999 29.7012 45.3333 29.7012 44.6343V41.7656C29.7012 41.0667 30.2679 40.5 30.9668 40.5H33.8355C34.5344 40.5 35.1011 41.0667 35.1011 41.7656V44.6343C35.1011 45.3334 34.5346 45.8999 33.8355 45.8999Z" fill="#CED6E0"/>
<path d="M45.9019 45.8999V41.8499C45.9019 41.1043 45.2976 40.5 44.552 40.5H41.8519C41.1063 40.5 40.502 41.1043 40.502 41.8499V44.55C40.502 45.2956 41.1065 45.8999 41.8519 45.8999H45.9019Z" fill="#CED6E0"/>
<path d="M12.2359 56.7003H9.36719C8.66825 56.7003 8.10156 56.1336 8.10156 55.4346V52.5659C8.10156 51.867 8.66825 51.3003 9.36719 51.3003H12.2359C12.9348 51.3003 13.5015 51.867 13.5015 52.5659V55.4346C13.5015 56.1336 12.9348 56.7003 12.2359 56.7003Z" fill="#CED6E0"/>
<path d="M23.0347 56.7003H20.166C19.4671 56.7003 18.9004 56.1336 18.9004 55.4346V52.5659C18.9004 51.867 19.4671 51.3003 20.166 51.3003H23.0347C23.7337 51.3003 24.3003 51.867 24.3003 52.5659V55.4346C24.3003 56.1336 23.7337 56.7003 23.0347 56.7003Z" fill="#CED6E0"/>
<path d="M33.8355 56.7003H30.9668C30.2679 56.7003 29.7012 56.1336 29.7012 55.4346V52.5659C29.7012 51.867 30.2679 51.3003 30.9668 51.3003H33.8355C34.5344 51.3003 35.1011 51.867 35.1011 52.5659V55.4346C35.1011 56.1336 34.5346 56.7003 33.8355 56.7003Z" fill="#CED6E0"/>
<path d="M72.9044 24.3V10.7999C72.9044 7.81765 70.4867 5.40015 67.5046 5.40015H8.09901C5.11672 5.40015 2.69922 7.81765 2.69922 10.7999V24.3H72.9044Z" fill="#DC010F"/>
<path d="M25.6483 10.125C25.6483 11.9889 24.1373 13.4999 22.2734 13.4999C20.4094 13.4999 18.8984 11.9889 18.8984 10.125V3.37495C18.8983 1.511 20.4093 0 22.2732 0C24.1372 0 25.6482 1.511 25.6482 3.37495V10.125H25.6483Z" fill="#EBF0F4"/>
<path d="M56.7012 10.125C56.7012 11.9889 55.1902 13.4999 53.3263 13.4999C51.4623 13.4999 49.9512 11.9889 49.9512 10.125V3.37495C49.9512 1.511 51.4622 0 53.3261 0C55.1901 0 56.7011 1.511 56.7011 3.37495V10.125H56.7012Z" fill="#EBF0F4"/>
<path d="M58.0527 81C69.2365 81 78.3027 71.9338 78.3027 60.75C78.3027 49.5662 69.2365 40.5 58.0527 40.5C46.869 40.5 37.8027 49.5662 37.8027 60.75C37.8027 71.9338 46.869 81 58.0527 81Z" fill="#353535"/>
<path d="M58.0512 75.6C66.2527 75.6 72.9013 68.9514 72.9013 60.75C72.9013 52.5485 66.2527 45.8999 58.0512 45.8999C49.8498 45.8999 43.2012 52.5485 43.2012 60.75C43.2012 68.9514 49.8498 75.6 58.0512 75.6Z" fill="#EBF0F4"/>
<path d="M58.0524 59.2722C57.3771 59.2722 56.8301 58.725 56.8301 58.05V51.2999C56.8301 50.6249 57.3773 50.0776 58.0524 50.0776C58.7276 50.0776 59.2746 50.6249 59.2746 51.2999V58.05C59.2746 58.725 58.7274 59.2722 58.0524 59.2722Z" fill="#DC010F"/>
<path d="M64.8017 61.9724H60.7516C60.0764 61.9724 59.5293 61.4252 59.5293 60.7501C59.5293 60.0751 60.0765 59.5278 60.7516 59.5278H64.8017C65.4769 59.5278 66.024 60.0751 66.024 60.7501C66.024 61.4252 65.4768 61.9724 64.8017 61.9724Z" fill="#1F1F1F"/>
<path d="M58.0516 63.4501C59.5428 63.4501 60.7517 62.2413 60.7517 60.7501C60.7517 59.2589 59.5428 58.05 58.0516 58.05C56.5604 58.05 55.3516 59.2589 55.3516 60.7501C55.3516 62.2413 56.5604 63.4501 58.0516 63.4501Z" fill="#707070"/>
</g>
<defs>
<clipPath id="clip0">
<rect width="81" height="81" fill="white"/>
</clipPath>
</defs>
</svg>
