<svg width="80" height="80" viewBox="0 0 80 80" fill="none" xmlns="http://www.w3.org/2000/svg">
<g clip-path="url(#clip0)">
<path d="M39.9298 63.5276C57.4724 63.5276 71.6936 49.3064 71.6936 31.7638C71.6936 14.2211 57.4724 0 39.9298 0C22.3871 0 8.16602 14.2211 8.16602 31.7638C8.16602 49.3064 22.3871 63.5276 39.9298 63.5276Z" fill="#353535"/>
<path d="M14.1967 50.3464L3.26758 69.2913L16.0235 68.6142L21.8188 80L31.929 62.4724C24.6849 60.5984 18.4644 56.2362 14.1967 50.3464Z" fill="#DC010F"/>
<path d="M65.7241 50.252C61.4879 56.1575 55.2674 60.5354 48.0391 62.4409L58.1808 80L63.9761 68.6142L76.732 69.2913L65.7241 50.252Z" fill="#DC010F"/>
<path d="M39.9222 58.2676C54.5773 58.2676 66.4576 46.3873 66.4576 31.7322C66.4576 17.0771 54.5773 5.19678 39.9222 5.19678C25.267 5.19678 13.3867 17.0771 13.3867 31.7322C13.3867 46.3873 25.267 58.2676 39.9222 58.2676Z" fill="#EBF0F4"/>
<path d="M55.7094 28.3741C56.418 27.6811 56.0243 26.4685 55.048 26.3268L45.9613 25.004C45.5676 24.941 45.2369 24.7048 45.0637 24.3426L41.0007 16.1063C40.5598 15.2087 39.2842 15.2087 38.8432 16.1063L34.796 24.3426C34.6228 24.689 34.2763 24.941 33.8984 25.004L24.8117 26.3268C23.8354 26.4685 23.4417 27.6811 24.1503 28.3741L30.7172 34.7835C31.0007 35.067 31.1267 35.4607 31.0637 35.8386L29.5204 44.878C29.3472 45.8544 30.3865 46.6103 31.2684 46.1378L39.3944 41.8701C39.7409 41.6811 40.1661 41.6811 40.5125 41.8701L48.6385 46.1378C49.5204 46.5945 50.544 45.8544 50.3865 44.878L48.8275 35.8386C48.7645 35.4449 48.8905 35.0512 49.1739 34.7835L55.7094 28.3741Z" fill="#CED6E0"/>
</g>
<defs>
<clipPath id="clip0">
<rect width="80" height="80" fill="white"/>
</clipPath>
</defs>
</svg>
