<svg width="78" height="78" viewBox="0 0 78 78" fill="none" xmlns="http://www.w3.org/2000/svg">
<g clip-path="url(#clip0)">
<path d="M22.5564 6.49706C22.6839 6.49706 22.8135 6.47558 22.9404 6.43033C23.5347 6.21827 23.8446 5.56456 23.6324 4.97027L22.1294 0.759033C21.9173 0.16474 21.2636 -0.145127 20.6693 0.0670876C20.075 0.27915 19.7651 0.932857 19.9774 1.52715L21.4804 5.73839C21.647 6.20563 22.087 6.49706 22.5564 6.49706Z" fill="#353535"/>
<path d="M42.2314 78.0001C42.3293 78.0001 42.4288 77.9874 42.5278 77.9607C43.1373 77.7976 43.499 77.1708 43.3358 76.5613L31.4568 32.2286C31.2933 31.6189 30.6661 31.258 30.0574 31.4205C29.4478 31.5839 29.0862 32.2104 29.2493 32.82L41.1283 77.1529C41.2652 77.6634 41.727 78.0001 42.2314 78.0001Z" fill="#353535"/>
<path d="M1.92475 33.2279C1.74605 20.0538 10.6535 8.39881 23.3274 5.14417C35.7919 1.94345 49.0044 7.6112 55.3281 18.9185L1.92475 33.2279Z" fill="#DC010F"/>
<path d="M19.3177 34.4142L19.7227 28.458L1.92144 33.2279L5.25015 38.1836C5.61333 38.7243 6.27999 38.9743 6.90902 38.8057L18.1922 35.7824C18.8212 35.6137 19.2737 35.0639 19.3177 34.4142Z" fill="#C9000D"/>
<path d="M37.1224 29.6444L37.5273 23.6882L19.7261 28.4581L23.0548 33.4139C23.418 33.9545 24.0847 34.2045 24.7137 34.0359L35.9969 31.0126C36.6259 30.8441 37.0782 30.2942 37.1224 29.6444Z" fill="#DC010F"/>
<path d="M54.9232 24.8746L55.3281 18.9185L37.5268 23.6883L40.8555 28.6441C41.2187 29.1848 41.8853 29.4347 42.5143 29.2661L53.7975 26.2428C54.4267 26.0743 54.8792 25.5245 54.9232 24.8746Z" fill="#C9000D"/>
<path d="M18.8239 15.3704C18.9431 11.9971 19.3221 8.95299 19.8046 6.30116C20.9416 5.84307 22.1174 5.45505 23.3278 5.14428C24.0772 4.95187 24.8293 4.79221 25.5823 4.66333C27.542 6.61926 29.7579 9.15286 31.8771 12.3291C34.6855 16.5383 36.4274 20.5313 37.5273 23.6883L30.3838 25.6024L19.7261 28.458C19.0988 24.8579 18.6455 20.4258 18.8239 15.3704Z" fill="#C9000D"/>
<path d="M65.6298 76.8573C65.9464 76.8573 66.2679 76.7911 66.5749 76.6514C67.7236 76.1287 68.231 74.7737 67.7082 73.6251L63.1379 63.5822C62.615 62.4336 61.2601 61.9263 60.1114 62.449C58.9628 62.9716 58.4553 64.3266 58.9781 65.4753L63.5485 75.5181C63.9316 76.3598 64.7616 76.8573 65.6298 76.8573Z" fill="#CED6E0"/>
<path d="M18.58 76.8573C18.2634 76.8573 17.9418 76.7911 17.6349 76.6514C16.4862 76.1287 15.9787 74.7737 16.5016 73.6251L21.0719 63.5822C21.5947 62.4336 22.9497 61.9263 24.0984 62.449C25.247 62.9716 25.7545 64.3266 25.2316 65.4753L20.6613 75.5181C20.2782 76.3598 19.4482 76.8573 18.58 76.8573Z" fill="#CED6E0"/>
<path d="M69.1328 66.8146H24.2184C23.0009 66.8146 21.8335 66.3287 20.9757 65.4648L4.92683 49.3045C4.68795 49.0639 4.785 48.6561 5.10659 48.5488L8.60392 47.3831C11.2868 46.4889 14.2447 47.2029 16.2241 49.2226L24.2772 57.44C24.8523 58.0268 25.6399 58.3565 26.4615 58.3542L62.9335 58.2553C66.6061 58.2432 69.5898 61.217 69.5898 64.8896V66.3574C69.5898 66.61 69.3851 66.8146 69.1328 66.8146Z" fill="#EBF0F4"/>
<path d="M4.62595 77.9997H74.9356C75.5666 77.9997 76.0781 77.4883 76.0781 76.8572C76.0781 76.226 75.5666 75.7146 74.9356 75.7146H4.62595C3.99495 75.7146 3.48338 76.226 3.48338 76.8572C3.48338 77.4883 3.9948 77.9997 4.62595 77.9997Z" fill="#353535"/>
</g>
<defs>
<clipPath id="clip0">
<rect width="78" height="78" fill="white" transform="matrix(-1 0 0 1 78 0)"/>
</clipPath>
</defs>
</svg>
