<svg width="67" height="72" viewBox="0 0 67 72" fill="none" xmlns="http://www.w3.org/2000/svg">
<path d="M10.0472 66.652H2.72754C1.22115 66.652 0 65.4308 0 63.9244V2.72754C0.00014989 1.22115 1.2213 0 2.72754 0H49.5974C51.1038 0 52.3249 1.22115 52.3249 2.72754V9.92089L10.0472 66.652Z" fill="#353535"/>
<path d="M41.5849 71.3474H7.20801C5.70162 71.3474 4.48047 70.1263 4.48047 68.6199V7.26367C4.48047 5.75728 5.70162 4.53613 7.20801 4.53613H54.3964C55.9028 4.53613 57.1239 5.75728 57.1239 7.26367V56.4268C57.1239 57.1186 56.8405 57.7802 56.3395 58.2573L43.3287 70.65C42.8583 71.0977 42.234 71.3474 41.5849 71.3474Z" fill="#EBF0F4"/>
<path d="M46.9468 26.0203H14.7555C13.4365 26.0203 12.3672 24.951 12.3672 23.632C12.3672 22.313 13.4365 21.2437 14.7555 21.2437H46.9468C48.2659 21.2437 49.3352 22.313 49.3352 23.632C49.3352 24.951 48.2659 26.0203 46.9468 26.0203Z" fill="#CED6E0"/>
<path d="M46.9468 35.5521H14.7555C13.4365 35.5521 12.3672 34.4828 12.3672 33.1637C12.3672 31.8447 13.4365 30.7754 14.7555 30.7754H46.9468C48.2659 30.7754 49.3352 31.8447 49.3352 33.1637C49.3352 34.4829 48.2659 35.5521 46.9468 35.5521Z" fill="#CED6E0"/>
<path d="M46.9468 45.0843H14.7555C13.4365 45.0843 12.3672 44.015 12.3672 42.696C12.3672 41.3769 13.4365 40.3076 14.7555 40.3076H46.9468C48.2659 40.3076 49.3352 41.3769 49.3352 42.696C49.3352 44.015 48.2659 45.0843 46.9468 45.0843Z" fill="#CED6E0"/>
<path d="M33.3544 54.6163H14.7555C13.4365 54.6163 12.3672 53.547 12.3672 52.2279C12.3672 50.9089 13.4365 49.8396 14.7555 49.8396H33.3544C34.6734 49.8396 35.7428 50.9089 35.7428 52.2279C35.7428 53.547 34.6734 54.6163 33.3544 54.6163Z" fill="#CED6E0"/>
<path d="M45.3213 57.51C43.8149 57.51 42.5938 58.7312 42.5938 60.2375V71.1336C42.8616 71.0166 43.1106 70.8553 43.326 70.6499L56.3368 58.2572C56.5633 58.0415 56.7426 57.7869 56.874 57.51H45.3213Z" fill="#CED6E0"/>
<path d="M65.7275 39.6965L52.6025 35.1041C52.2125 34.9653 51.7875 34.9653 51.3975 35.1041L38.2725 39.6965C37.51 39.964 37 40.6968 37 41.5196V51.8538C37 64.4637 50.685 70.5937 51.2675 70.8483C51.5025 70.9486 51.75 71 52 71C52.25 71 52.4975 70.9486 52.7325 70.8457C53.315 70.5937 67 64.4637 67 51.8538V41.5196C67 40.6968 66.49 39.964 65.7275 39.6965Z" fill="#DC010F"/>
<path d="M59.5519 49.0877L52.198 57.2689C51.8465 57.6793 51.3256 57.9408 50.7585 57.9905L50.5535 58C50.0576 58 49.5722 57.8397 49.1935 57.5419L44.732 53.9285C43.8532 53.2432 43.7507 52.0368 44.506 51.2369C45.2571 50.4352 46.5795 50.3436 47.454 51.0289L50.2585 53.3461L56.2628 46.7321C56.9763 45.9017 58.2902 45.7547 59.2004 46.4095C60.1085 47.0604 60.2675 48.2611 59.5519 49.0877Z" fill="#EBF0F4"/>
</svg>
