<svg width="178" height="238" viewBox="0 0 178 238" fill="none" xmlns="http://www.w3.org/2000/svg">
<g style="mix-blend-mode:multiply">
<circle r="75" transform="matrix(1 0 0 -1 101 88)" fill="white"/>
<circle r="75" transform="matrix(1 0 0 -1 101 88)" fill="url(#paint0_linear)"/>
</g>
<path d="M37.4777 58.6336V152.434H27.8297V67.2096H5.71967V58.6336H37.4777Z" fill="url(#paint1_linear)"/>
<g clip-path="url(#clip0)">
<path d="M152.106 138.316V151.345C152.106 152.812 150.918 154 149.451 154H52.5494C51.0826 154 49.8945 152.812 49.8945 151.345V138.316C49.8945 124.647 60.9752 113.573 74.6477 113.57C79.4795 113.567 83.7339 111.081 86.183 107.311C88.6434 103.53 88.3899 100.242 88.3899 97.5844L88.4397 97.4616C76.526 92.5303 68.1466 80.7925 68.1466 67.0968V66.0581C63.416 66.0581 59.8502 62.3197 59.8502 57.9143V44.1223C59.744 39.3204 59.9631 22.3857 72.1953 10.5949C86.4187 -3.11411 108.958 -1.99244 125.286 5.34159C125.817 5.58053 125.8 6.34048 125.262 6.56282L121.005 8.31502C120.368 8.57719 120.504 9.51635 121.187 9.58935L123.255 9.8117C133.154 10.8703 142.35 16.2464 148.051 25.1932C148.204 25.4355 148.161 25.8039 147.965 26.0129C144.447 29.733 142.482 34.6711 142.482 39.8049V57.9143C142.482 62.411 138.835 66.0581 134.339 66.0581H133.854V67.0968C133.854 80.7925 125.475 92.5303 113.561 97.4616L113.611 97.5844C113.611 100.165 113.337 103.498 115.818 107.311C118.267 111.081 122.521 113.567 127.353 113.57C141.026 113.573 152.106 124.647 152.106 138.316Z" fill="#FFDFBA"/>
<path d="M152.106 138.316V151.345C152.106 152.811 150.918 154 149.451 154H52.5494C51.0832 154 49.8945 152.811 49.8945 151.345V138.316C49.8945 124.647 60.9769 113.575 74.646 113.57C79.4792 113.568 83.7346 111.08 86.183 107.311C94.7297 114.613 107.266 114.617 115.818 107.311C118.266 111.08 122.522 113.568 127.355 113.57C141.024 113.575 152.106 124.647 152.106 138.316Z" fill="#E3000F"/>
<path d="M148.049 25.1947C148.203 25.4366 148.16 25.803 147.963 26.0114C144.446 29.7342 142.482 34.6705 142.482 39.8047V57.9141C142.482 62.0251 139.385 66.0579 133.853 66.0579V45.5591C133.853 36.7616 126.722 29.63 117.924 29.63H84.075C75.2775 29.63 68.1459 36.7616 68.1459 45.5591V66.0579C63.4153 66.0579 59.8495 62.3195 59.8495 57.9141V44.1221C59.7433 39.3202 59.9623 22.3855 72.1945 10.5947C86.4169 -3.11464 108.959 -1.9923 125.284 5.3424C125.815 5.581 125.801 6.34128 125.262 6.56296L121.004 8.31583C120.367 8.578 120.502 9.51615 121.186 9.58949L123.254 9.81151C133.155 10.8691 142.348 16.2452 148.049 25.1947Z" fill="#353535"/>
<path d="M133.852 67.0965C133.852 85.2477 119.135 99.9503 100.998 99.9503C83.9104 99.9503 68.1445 86.6657 68.1445 66.0578V45.559C68.1445 36.7615 75.2761 29.6299 84.0736 29.6299H117.923C126.721 29.6299 133.852 36.7615 133.852 45.559V67.0965Z" fill="#FFEBD2"/>
<path d="M127.881 148.359H119.917C118.45 148.359 117.262 147.17 117.262 145.704C117.262 144.238 118.45 143.049 119.917 143.049H127.881C129.347 143.049 130.536 144.238 130.536 145.704C130.536 147.17 129.348 148.359 127.881 148.359Z" fill="#C9000D"/>
<path d="M113.987 103.033C105.811 106.456 96.8258 106.721 88.0156 103.033C88.4656 101.166 88.3906 99.957 88.3906 97.5842L88.4404 97.4614C96.4322 100.779 105.555 100.785 113.562 97.4614L113.612 97.5842C113.612 99.958 113.537 101.167 113.987 103.033Z" fill="#FFD6A6"/>
<path d="M88.0189 121.587C86.7917 121.972 85.4755 122.185 84.0645 122.197C70.3601 122.318 59.1865 133.154 59.1865 146.859V149.354C59.1865 151.92 57.1064 154 54.5405 154H52.5494C51.0832 154 49.8945 152.811 49.8945 151.345V138.316C49.8945 124.647 60.9769 113.575 74.646 113.57C79.4792 113.568 83.7346 111.08 86.183 107.311C87.17 108.154 88.2266 108.912 89.3397 109.575C94.2355 112.492 93.4553 119.877 88.0189 121.587Z" fill="#EA313D"/>
<path d="M113.981 121.587C115.208 121.972 116.524 122.185 117.935 122.197C131.64 122.318 142.813 133.154 142.813 146.859V149.354C142.813 151.92 144.893 154 147.459 154H149.451C150.917 154 152.105 152.811 152.105 151.345V138.316C152.105 124.647 141.023 113.575 127.354 113.57C122.521 113.568 118.265 111.08 115.817 107.311C114.83 108.154 113.773 108.912 112.66 109.575C107.765 112.492 108.545 119.877 113.981 121.587Z" fill="#EA313D"/>
<path d="M125.262 6.56282C121.36 8.16868 120.804 8.52277 119.452 8.31303C97.6572 4.93473 78.5356 13.9523 72.0419 35.1224V35.1257C69.6127 37.9199 68.1459 41.5704 68.1459 45.5593V58.0115C68.1459 63.3836 59.8495 63.7576 59.8495 57.9143V44.1223C59.7433 39.3204 59.9623 22.3857 72.1945 10.5949C86.4179 -3.11411 108.958 -1.99244 125.285 5.34159C125.816 5.58053 125.799 6.34048 125.262 6.56282Z" fill="#2A2A2A"/>
</g>
<defs>
<linearGradient id="paint0_linear" x1="75" y1="0" x2="75" y2="150" gradientUnits="userSpaceOnUse">
<stop stop-color="#FAEDC2" stop-opacity="0"/>
<stop offset="1" stop-color="#FAEDC2"/>
</linearGradient>
<linearGradient id="paint1_linear" x1="28.7227" y1="22.4336" x2="28.7227" y2="237.304" gradientUnits="userSpaceOnUse">
<stop stop-color="#CDCDCD"/>
<stop offset="1" stop-color="white" stop-opacity="0"/>
</linearGradient>
<clipPath id="clip0">
<rect width="154" height="154" fill="white" transform="translate(24)"/>
</clipPath>
</defs>
</svg>
