<svg width="175" height="241" viewBox="0 0 175 241" fill="none" xmlns="http://www.w3.org/2000/svg">
<g style="mix-blend-mode:multiply">
<circle r="75" transform="matrix(1 0 0 -1 98 91)" fill="white"/>
<circle r="75" transform="matrix(1 0 0 -1 98 91)" fill="url(#paint0_linear)"/>
</g>
<path d="M82.2068 131.474H63.4468V156.13H53.7988V131.474H0.868789V124.506L50.5828 62.3299H61.3028L13.3308 122.898H54.0668V101.19H63.4468V122.898H82.2068V131.474Z" fill="url(#paint1_linear)"/>
<g clip-path="url(#clip0)">
<path d="M149.11 141.242V154.345C149.11 155.812 147.922 157 146.455 157H49.5457C48.0788 157 46.8906 155.812 46.8906 154.345V141.242C46.8906 127.555 58.0883 116.7 71.7752 116.567C76.3306 116.518 80.4184 114.264 82.9131 110.709L82.8932 110.689C85.6445 106.775 85.3717 103.249 85.3757 100.57L85.4255 100.447C73.5275 95.5155 65.1574 83.7868 65.1508 70.1099V69.028C60.3873 69.028 56.857 65.2498 56.8604 60.8803C56.8627 57.7884 65.1481 36.6759 65.1508 33C65.1541 28.0516 60.8994 19.5742 65.8477 19.5775C69.8721 9.53974 79.5996 2.99337 90.3705 3.00001L111.521 9.02035C113.376 9.02367 114.66 10.8822 114 12.618H126.277C125.729 14.0683 126.532 15.6779 128.019 16.1094L129.858 16.6437C135.369 18.2437 137 25.3306 137 31.5C137 33.9924 139.509 49.437 139.502 60.3957C139.502 65.1649 135.633 69.028 130.863 69.028V70.1099C130.854 83.8166 122.454 95.5586 110.522 100.474V100.477L110.562 100.57C110.562 103.128 110.263 106.731 113.041 110.692C115.462 114.148 119.569 116.517 124.226 116.567C137.913 116.7 149.11 127.555 149.11 141.242Z" fill="#FFDFBA"/>
<path d="M149.11 141.242V154.345C149.11 155.812 147.922 157 146.455 157H49.5457C48.0788 157 46.8906 155.812 46.8906 154.345V141.242C46.8906 127.555 58.0883 116.699 71.7752 116.567C76.301 116.518 80.4024 114.29 82.9164 110.702C91.8932 120.678 93.5679 122.538 96.0258 125.272C97.0812 126.443 98.9198 126.443 99.9752 125.272C102.49 122.475 104.213 120.56 113.064 110.725C115.47 114.158 119.584 116.517 124.226 116.567C137.913 116.699 149.11 127.555 149.11 141.242Z" fill="#EBF0F4"/>
<path d="M117.211 123.231C130.347 123.828 140.814 134.671 140.814 147.953V157H146.456C147.923 157 149.111 155.811 149.111 154.345V141.263C149.111 127.571 137.909 116.707 124.218 116.566C122.346 116.547 120.561 116.154 118.937 115.458C118.896 115.546 117.232 123.136 117.211 123.231Z" fill="#BDEFFC"/>
<path d="M114.957 32.6336C123.756 32.6402 130.881 39.7757 130.874 48.5739C130.871 56.0933 130.861 70.1097 130.861 70.1097C130.851 83.8165 122.451 95.5585 110.52 100.474V100.477C88.9238 109.383 65.1597 93.451 65.1484 70.1097C65.1484 68.378 65.1604 50.7484 65.1617 48.5307C65.1684 39.7325 72.3071 32.6037 81.1053 32.6104L114.957 32.6336Z" fill="#FFEBD2"/>
<path d="M110.989 106.029C102.812 109.452 93.8264 109.718 85.0156 106.029C85.4657 104.162 85.3906 102.953 85.3906 100.58L85.4404 100.457C93.4328 103.775 102.556 103.781 110.564 100.457L110.614 100.58C110.614 102.954 110.539 104.163 110.989 106.029Z" fill="#FFD6A6"/>
<path d="M100.109 0H96.8896C74.8936 0 57 17.7115 57 39.4797V44.7451V49.6732V57.9997C57 57.9997 66.0815 57.1081 67.1987 52.7494L67.1928 52.7449C67.5763 52.3322 67.8968 51.8621 68.123 51.3362C73.2744 51.1826 97.3384 50.9972 111.08 34.5716C112.72 39.3198 118.268 48.3105 128.943 51.1418C129.163 51.7147 129.49 52.2316 129.89 52.6792L129.801 52.7498C130.918 57.1085 140 58 140 58V49.6393V44.7451V39.4797C140 17.7115 122.105 0 100.109 0ZM130.184 49.9143L130.569 49.639H130.623L129.997 50.0977L130.184 49.9143ZM129.989 50.033L130.032 49.8988L130.165 49.639H130.219L130.061 49.9652L129.989 50.033ZM128.931 50.8425L128.916 50.8218L129.9 50.1174L129.668 50.3395L128.949 50.8657L128.931 50.8425ZM129.743 50.6139L129.435 51.2445C129.432 51.2439 129.432 51.2439 129.429 51.2425L129.386 51.2231C129.379 51.22 129.371 51.2151 129.365 51.212L129.867 50.2243L129.881 50.2119L129.743 50.6139Z" fill="#353535"/>
<path d="M100.654 124.516V143.725C100.654 145.192 99.4657 146.38 97.9988 146.38C96.5319 146.38 95.3438 145.192 95.3438 143.725V124.516L96.0241 125.272C97.0795 126.444 98.9181 126.444 99.9735 125.272L100.654 124.516Z" fill="#BDEFFC"/>
<path d="M78.7912 123.231C65.6553 123.829 55.1877 134.671 55.1877 147.953V157H49.5457C48.0794 157 46.8906 155.811 46.8906 154.345V141.263C46.8906 127.572 58.0927 116.707 71.7838 116.566C73.6559 116.547 75.4411 116.154 77.0654 115.458C77.1065 115.546 78.7702 123.137 78.7912 123.231Z" fill="#E8F8FC"/>
<path fill-rule="evenodd" clip-rule="evenodd" d="M93.6095 137H102.724L108.331 165H88L93.6095 137Z" fill="#E3000F"/>
<path d="M106.942 123.007C106.666 122.383 106.183 122 105.664 122H90.6638C90.1448 122 89.6618 122.383 89.3888 123.012C89.1158 123.636 89.0888 124.422 89.3228 125.077L93.8229 137.827C94.0779 138.545 94.5969 139 95.1639 139H101.164C101.731 139 102.25 138.545 102.505 137.827L107.005 125.077C107.236 124.414 107.215 123.632 106.942 123.007Z" fill="#C9000D"/>
<path d="M118.934 115.458C118.893 115.546 115.617 130.447 115.638 130.352C115.206 132.313 112.724 132.944 111.408 131.428C102.694 121.394 103.882 122.702 103 121.906L113.062 110.725C114.523 112.809 116.567 114.443 118.934 115.458Z" fill="#CED6E0"/>
<path d="M82.9136 110.702L92.7572 121.641L84.5919 131.317C83.287 132.864 80.7753 132.243 80.3398 130.267C80.3189 130.173 77.104 115.545 77.0625 115.458C79.4288 114.442 81.4533 112.786 82.9136 110.702Z" fill="#CED6E0"/>
<path d="M149 152.579V139.752C149 126.39 139.53 120.148 134.5 118.5C129.47 116.852 119 116 119 116L107 157H144.264C148.194 157 148.892 154.017 149 152.579Z" fill="#324A5E"/>
<path d="M47 152.579V139.752C47 126.39 56.4698 120.148 61.5 118.5C66.5302 116.852 77 116 77 116L89 157H51.7364C47.8064 157 47.1084 154.017 47 152.579Z" fill="#324A5E"/>
<path d="M127.965 156.809V138.546C127.965 137.399 127.036 136.47 125.889 136.47C124.742 136.47 123.812 137.399 123.812 138.546V156.809H127.965Z" fill="#283D4C"/>
<path d="M69.3012 156.809V138.546C69.3012 137.399 68.3718 136.47 67.2248 136.47C66.0778 136.47 65.1484 137.399 65.1484 138.546V156.809H69.3012Z" fill="#283D4C"/>
</g>
<defs>
<linearGradient id="paint0_linear" x1="75" y1="0" x2="75" y2="150" gradientUnits="userSpaceOnUse">
<stop stop-color="#FAEDC2" stop-opacity="0"/>
<stop offset="1" stop-color="#FAEDC2"/>
</linearGradient>
<linearGradient id="paint1_linear" x1="39.8047" y1="26.1299" x2="39.8047" y2="241" gradientUnits="userSpaceOnUse">
<stop stop-color="#CDCDCD"/>
<stop offset="1" stop-color="white" stop-opacity="0"/>
</linearGradient>
<clipPath id="clip0">
<rect width="154" height="157" fill="white" transform="translate(21)"/>
</clipPath>
</defs>
</svg>
