<svg width="186" height="238" viewBox="0 0 186 238" fill="none" xmlns="http://www.w3.org/2000/svg">
<g style="mix-blend-mode:multiply">
<circle r="75" transform="matrix(1 0 0 -1 109 88)" fill="white"/>
<circle r="75" transform="matrix(1 0 0 -1 109 88)" fill="url(#paint0_linear)"/>
</g>
<path d="M37.7643 99.5299C47.591 100.066 55.0503 102.746 60.1423 107.57C65.3236 112.305 67.9143 118.513 67.9143 126.196C67.9143 131.556 66.619 136.335 64.0283 140.534C61.4376 144.643 57.5963 147.904 52.5043 150.316C47.4123 152.728 41.2036 153.934 33.8783 153.934C27.089 153.934 20.657 152.862 14.5823 150.718C8.59696 148.485 3.77296 145.537 0.110297 141.874L4.8003 134.236C7.92696 137.452 12.081 140.087 17.2623 142.142C22.4436 144.107 27.9823 145.09 33.8783 145.09C41.561 145.09 47.5016 143.437 51.7003 140.132C55.899 136.737 57.9983 132.092 57.9983 126.196C57.9983 120.389 55.899 115.833 51.7003 112.528C47.5016 109.223 41.159 107.57 32.6723 107.57H25.9723V100.468L51.9683 67.9059H3.9963V59.3299H64.2963V66.1639L37.7643 99.5299Z" fill="url(#paint1_linear)"/>
<g clip-path="url(#clip0)">
<path d="M160.11 138.242V151.345C160.11 152.812 158.922 154 157.455 154H60.5457C59.0788 154 57.8906 152.812 57.8906 151.345V138.242C57.8906 124.555 69.0883 113.7 82.7752 113.567C87.3306 113.518 91.4184 111.264 93.9131 107.709L93.8932 107.689C96.6445 103.775 96.3717 100.249 96.3757 97.57L96.4255 97.4473C84.5275 92.5155 76.1574 80.7868 76.1508 67.1099V66.028C71.3873 66.028 67.857 62.2498 67.8604 57.8803C67.8627 54.7884 67.8809 29.211 67.8836 25.535C67.8869 20.5867 71.8994 16.5742 76.8477 16.5775C80.8721 6.53974 90.5996 -0.0066326 101.371 5.04292e-06L137.071 0.0265556C138.926 0.0298744 140.211 1.88841 139.55 3.62416L137.277 9.61795C136.729 11.0683 137.532 12.6779 139.019 13.1094L140.858 13.6437C146.369 15.2437 150.519 20.2651 150.519 26.4344C150.519 28.9269 150.509 46.437 150.502 57.3957C150.502 62.1649 146.633 66.028 141.863 66.028V67.1099C141.854 80.8166 133.454 92.5586 121.522 97.4738V97.4771L121.562 97.57C121.562 100.128 121.263 103.731 124.041 107.692C126.462 111.148 130.569 113.517 135.226 113.567C148.913 113.7 160.11 124.555 160.11 138.242Z" fill="#FFDFBA"/>
<path d="M160.11 138.242V151.345C160.11 152.812 158.922 154 157.455 154H60.5457C59.0788 154 57.8906 152.812 57.8906 151.345V138.242C57.8906 124.555 69.0883 113.699 82.7752 113.567C87.301 113.518 91.4024 111.29 93.9164 107.702C102.893 117.678 104.568 119.538 107.026 122.272C108.081 123.443 109.92 123.443 110.975 122.272C113.49 119.475 115.213 117.56 124.064 107.725C126.47 111.158 130.584 113.517 135.226 113.567C148.913 113.699 160.11 124.555 160.11 138.242Z" fill="#EBF0F4"/>
<path d="M150.518 26.4344C150.518 28.9269 150.508 46.437 150.501 57.3957C150.501 62.1649 146.632 66.028 141.862 66.028C141.866 62.4171 141.872 53.6455 141.876 45.5741C141.882 36.7759 134.757 29.6404 125.959 29.6338L92.1067 29.6105C83.3085 29.6039 76.1697 36.7327 76.1631 45.5309L76.1498 66.028C71.3863 66.028 67.8561 62.2498 67.8594 57.8803C67.8617 54.7885 67.88 29.211 67.8826 25.535C67.8859 20.5867 71.8984 16.5742 76.8467 16.5775C80.8712 6.53941 90.5986 -0.0066326 101.37 5.04318e-06L137.07 0.0268875C138.927 0.028215 140.209 1.88709 139.55 3.6235L137.277 9.61762C136.727 11.0663 137.53 12.6759 139.018 13.1087L140.857 13.6437C146.368 15.2437 150.518 20.2651 150.518 26.4344Z" fill="#353535"/>
<path d="M125.961 29.6336C134.759 29.6402 141.885 36.7757 141.878 45.5739C141.875 53.0933 141.865 67.1097 141.865 67.1097C141.855 80.8165 133.455 92.5585 121.524 97.4736V97.4769C99.9277 106.383 76.1636 90.451 76.1523 67.1097C76.1523 65.378 76.1643 47.7484 76.1656 45.5307C76.1723 36.7325 83.311 29.6037 92.1092 29.6104L125.961 29.6336Z" fill="#FFEBD2"/>
<path d="M121.985 103.029C113.808 106.452 104.823 106.718 96.0117 103.029C96.4618 101.162 96.3867 99.9528 96.3867 97.5798L96.4365 97.457C104.429 100.775 113.552 100.781 121.56 97.457L121.61 97.5798C121.61 99.9538 121.535 101.163 121.985 103.029Z" fill="#FFD6A6"/>
<path d="M139.549 3.62416C137.196 9.82837 137.229 9.68367 137.173 9.97639L111.326 9.95647C101.294 9.95017 92.1658 15.629 87.7092 24.5205C87.1504 25.6356 86.1391 26.4709 84.9195 26.7311C80.8751 27.5944 77.8417 31.1893 77.8391 35.4915L77.8358 38.4286C76.7671 40.566 76.1664 42.9788 76.1631 45.5309L76.1551 57.9808C76.1515 63.357 67.8551 63.7134 67.8594 57.8803C67.8617 54.7885 67.88 29.211 67.8826 25.535C67.8859 20.5867 71.8984 16.5742 76.8467 16.5775C80.8708 6.53974 90.5983 -0.0066326 101.369 5.04292e-06L137.07 0.0265556C138.925 0.0298744 140.209 1.88841 139.549 3.62416Z" fill="#2A2A2A"/>
<path d="M111.654 121.516V140.725C111.654 142.192 110.466 143.38 108.999 143.38C107.532 143.38 106.344 142.192 106.344 140.725V121.516L107.024 122.272C108.079 123.444 109.918 123.444 110.974 122.272L111.654 121.516Z" fill="#BDEFFC"/>
<path fill-rule="evenodd" clip-rule="evenodd" d="M104.609 134H113.724L119.331 162H99L104.609 134Z" fill="#E3000F"/>
<path d="M117.942 120.007C117.666 119.383 117.183 119 116.664 119H101.664C101.145 119 100.662 119.383 100.389 120.012C100.116 120.636 100.089 121.422 100.323 122.077L104.823 134.827C105.078 135.545 105.597 136 106.164 136H112.164C112.731 136 113.25 135.545 113.505 134.827L118.005 122.077C118.236 121.414 118.215 120.632 117.942 120.007Z" fill="#C9000D"/>
<path d="M129.934 112.458C129.893 112.546 126.617 127.447 126.638 127.352C126.206 129.313 123.724 129.944 122.408 128.428C113.694 118.394 114.882 119.702 114 118.906L124.062 107.725C125.523 109.809 127.567 111.443 129.934 112.458Z" fill="#CED6E0"/>
<path d="M93.9136 107.702L103.757 118.641L95.5919 128.317C94.287 129.864 91.7753 129.243 91.3398 127.267C91.3189 127.173 88.104 112.545 88.0625 112.458C90.4288 111.442 92.4533 109.786 93.9136 107.702Z" fill="#CED6E0"/>
</g>
<defs>
<linearGradient id="paint0_linear" x1="75" y1="0" x2="75" y2="150" gradientUnits="userSpaceOnUse">
<stop stop-color="#FAEDC2" stop-opacity="0"/>
<stop offset="1" stop-color="#FAEDC2"/>
</linearGradient>
<linearGradient id="paint1_linear" x1="36.7227" y1="23.1299" x2="36.7227" y2="238" gradientUnits="userSpaceOnUse">
<stop stop-color="#CDCDCD"/>
<stop offset="1" stop-color="white" stop-opacity="0"/>
</linearGradient>
<clipPath id="clip0">
<rect width="154" height="154" fill="white" transform="translate(32)"/>
</clipPath>
</defs>
</svg>
