<svg width="171" height="238" viewBox="0 0 171 238" fill="none" xmlns="http://www.w3.org/2000/svg">
<path d="M68.7446 143.858V152.434H2.95061V145.6L41.9446 107.41C46.8579 102.586 50.1633 98.4316 51.8606 94.9476C53.6473 91.3743 54.5406 87.8009 54.5406 84.2276C54.5406 78.6889 52.6199 74.4009 48.7786 71.3636C45.0266 68.2369 39.6219 66.6736 32.5646 66.6736C21.5766 66.6736 13.0453 70.1576 6.97061 77.1256L0.13661 71.2296C3.79928 66.9416 8.44461 63.6363 14.0726 61.3136C19.7899 58.9909 26.2219 57.8296 33.3686 57.8296C42.9273 57.8296 50.4759 60.1076 56.0146 64.6636C61.6426 69.1303 64.4566 75.2943 64.4566 83.1556C64.4566 87.9796 63.3846 92.6249 61.2406 97.0916C59.0966 101.558 55.0319 106.695 49.0466 112.502L17.1546 143.858H68.7446Z" fill="url(#paint0_linear)"/>
<g style="mix-blend-mode:multiply">
<circle r="75" transform="matrix(1 0 0 -1 94 88)" fill="white"/>
<circle r="75" transform="matrix(1 0 0 -1 94 88)" fill="url(#paint1_linear)"/>
</g>
<g clip-path="url(#clip0)">
<path d="M145.11 138.242V151.345C145.11 152.812 143.922 154 142.455 154H45.5457C44.0788 154 42.8906 152.812 42.8906 151.345V138.242C42.8906 124.555 54.0883 113.7 67.7752 113.567C72.3306 113.518 76.4184 111.264 78.9131 107.709L78.8932 107.689C81.6445 103.775 81.3717 100.249 81.3757 97.57L81.4255 97.4473C69.5275 92.5155 61.1574 80.7868 61.1508 67.1099V66.028C56.3873 66.028 52.857 62.2498 52.8604 57.8803C52.8627 54.7884 52.8809 29.211 52.8836 25.535C52.8869 20.5867 56.8994 16.5742 61.8477 16.5775C65.8721 6.53974 75.5996 -0.0066326 86.3705 5.04292e-06L122.071 0.0265556C123.926 0.0298744 125.211 1.88841 124.55 3.62416L122.277 9.61795C121.729 11.0683 122.532 12.6779 124.019 13.1094L125.858 13.6437C131.369 15.2437 135.519 20.2651 135.519 26.4344C135.519 28.9269 135.509 46.437 135.502 57.3957C135.502 62.1649 131.633 66.028 126.863 66.028V67.1099C126.854 80.8166 118.454 92.5586 106.522 97.4738V97.4771L106.562 97.57C106.562 100.128 106.263 103.731 109.041 107.692C111.462 111.148 115.569 113.517 120.226 113.567C133.913 113.7 145.11 124.555 145.11 138.242V138.242Z" fill="#FFDFBA"/>
<path d="M145.11 138.242V151.345C145.11 152.812 143.922 154 142.455 154H45.5457C44.0788 154 42.8906 152.812 42.8906 151.345V138.242C42.8906 124.556 54.0883 113.7 67.7752 113.567C72.301 113.519 76.4024 111.291 78.9164 107.703C87.8932 117.678 89.5679 119.539 92.0258 122.272C93.0812 123.444 94.9198 123.444 95.9752 122.272C98.4902 119.475 100.213 117.561 109.064 107.725C111.47 111.159 115.584 113.518 120.226 113.567C133.913 113.7 145.11 124.556 145.11 138.242V138.242Z" fill="#EBF0F4"/>
<path d="M114.934 112.458C114.893 112.546 111.617 127.447 111.638 127.352C111.206 129.313 108.724 129.944 107.408 128.428C98.6937 118.394 99.8825 119.702 99 118.906L109.062 107.725C110.523 109.809 112.567 111.443 114.934 112.458Z" fill="#CED6E0"/>
<path d="M78.9136 107.702L88.7572 118.641L80.5919 128.317C79.287 129.864 76.7753 129.243 76.3398 127.267C76.3189 127.173 73.104 112.545 73.0625 112.458C75.4288 111.442 77.4533 109.786 78.9136 107.702V107.702Z" fill="#CED6E0"/>
<path d="M135.518 26.4344C135.518 28.9269 135.508 46.437 135.501 57.3957C135.501 62.1649 131.632 66.028 126.862 66.028C126.866 62.4171 126.872 53.6455 126.876 45.5741C126.882 36.7759 119.757 29.6404 110.959 29.6338L77.1067 29.6105C68.3085 29.6039 61.1697 36.7327 61.1631 45.5309L61.1498 66.028C56.3863 66.028 52.8561 62.2498 52.8594 57.8803C52.8617 54.7885 52.88 29.211 52.8826 25.535C52.8859 20.5867 56.8984 16.5742 61.8467 16.5775C65.8712 6.53941 75.5986 -0.0066326 86.3695 5.04318e-06L122.07 0.0268875C123.927 0.028215 125.209 1.88709 124.55 3.6235L122.277 9.61762C121.727 11.0663 122.53 12.6759 124.018 13.1087L125.857 13.6437C131.368 15.2437 135.518 20.2651 135.518 26.4344V26.4344Z" fill="#353535"/>
<path d="M110.961 29.6336C119.759 29.6402 126.885 36.7757 126.878 45.5739C126.875 53.0933 126.865 67.1097 126.865 67.1097C126.855 80.8165 118.455 92.5585 106.524 97.4736V97.4769C84.9277 106.383 61.1636 90.451 61.1523 67.1097C61.1523 65.378 61.1643 47.7484 61.1656 45.5307C61.1723 36.7325 68.311 29.6037 77.1092 29.6104L110.961 29.6336Z" fill="#FFEBD2"/>
<path d="M106.985 103.029C98.8082 106.452 89.8225 106.718 81.0117 103.029C81.4618 101.162 81.3867 99.9528 81.3867 97.5798L81.4365 97.457C89.4289 100.775 98.552 100.781 106.56 97.457L106.61 97.5798C106.61 99.9538 106.535 101.163 106.985 103.029Z" fill="#FFD6A6"/>
<path d="M124.549 3.62416C122.196 9.82837 122.229 9.68366 122.173 9.97638L96.3257 9.95647C86.2935 9.95017 77.1658 15.629 72.7092 24.5205C72.1504 25.6356 71.1391 26.4709 69.9195 26.7311C65.8751 27.5944 62.8417 31.1893 62.8391 35.4915L62.8358 38.4286C61.7671 40.566 61.1664 42.9788 61.1631 45.5309L61.1551 57.9808C61.1515 63.357 52.8551 63.7134 52.8594 57.8803C52.8617 54.7885 52.88 29.211 52.8826 25.535C52.8859 20.5867 56.8984 16.5742 61.8467 16.5775C65.8708 6.53974 75.5983 -0.0066326 86.3692 5.04292e-06L122.07 0.0265556C123.925 0.0298744 125.209 1.88842 124.549 3.62416V3.62416Z" fill="#2A2A2A"/>
<path d="M96.6539 121.516V140.725C96.6539 142.192 95.4657 143.38 93.9988 143.38C92.5319 143.38 91.3438 142.192 91.3438 140.725V121.516L92.0241 122.272C93.0795 123.444 94.9181 123.444 95.9735 122.272L96.6539 121.516Z" fill="#CED6E0"/>
</g>
<defs>
<linearGradient id="paint0_linear" x1="35.8047" y1="22.4336" x2="35.8047" y2="237.304" gradientUnits="userSpaceOnUse">
<stop stop-color="#CDCDCD"/>
<stop offset="1" stop-color="white" stop-opacity="0"/>
</linearGradient>
<linearGradient id="paint1_linear" x1="75" y1="0" x2="75" y2="150" gradientUnits="userSpaceOnUse">
<stop stop-color="#FAEDC2" stop-opacity="0"/>
<stop offset="1" stop-color="#FAEDC2"/>
</linearGradient>
<clipPath id="clip0">
<rect width="154" height="154" fill="white" transform="translate(17)"/>
</clipPath>
</defs>
</svg>
